{
  "accessors": [
    {
      "bufferView": 2,
      "componentType": 5126,
      "count": 65532,
      "max": [
        661.1782836914063,
        2146.110107421875,
        681.6931762695313
      ],
      "min": [
        -720.0020141601563,
        582.0421142578125,
        -588.0059814453125
      ],
      "type": "VEC3"
    },
    {
      "bufferView": 2,
      "byteOffset": 786384,
      "componentType": 5126,
      "count": 65532,
      "max": [
        0.9999994039535522,
        0.9999861717224121,
        0.9999985098838806
      ],
      "min": [
        -0.9999994039535522,
        -0.9999861717224121,
        -0.9999985098838806
      ],
      "type": "VEC3"
    },
    {
      "bufferView": 3,
      "componentType": 5126,
      "count": 65532,
      "max": [
        0.9098039269447327,
        0.9215685725212097,
        0.9725490212440491,
        1.0
      ],
      "min": [
        0.11372549831867218,
        0.07450980693101883,
        0.023529410362243652,
        0.0
      ],
      "type": "VEC4"
    },
    {
      "bufferView": 1,
      "componentType": 5126,
      "count": 65532,
      "max": [
        146.4718017578125,
        1.0
      ],
      "min": [
        0.0013014619471505284,
        0.0
      ],
      "type": "VEC2"
    },
    {
      "bufferView": 0,
      "componentType": 5125,
      "count": 187818,
      "type": "SCALAR"
    },
    {
      "bufferView": 2,
      "byteOffset": 1572768,
      "componentType": 5126,
      "count": 6824,
      "max": [
        572.2332153320313,
        1838.0069580078125,
        727.1417846679688
      ],
      "min": [
        -579.4326171875,
        609.9517211914063,
        -534.7047119140625
      ],
      "type": "VEC3"
    },
    {
      "bufferView": 2,
      "byteOffset": 1654656,
      "componentType": 5126,
      "count": 6824,
      "max": [
        0.9999849796295166,
        0.9898272752761841,
        0.999997079372406
      ],
      "min": [
        -0.9999849796295166,
        -0.9898272752761841,
        -0.999997079372406
      ],
      "type": "VEC3"
    },
    {
      "bufferView": 3,
      "byteOffset": 1048512,
      "componentType": 5126,
      "count": 6824,
      "max": [
        0.9098039269447327,
        0.9215685725212097,
        0.9725490212440491,
        1.0
      ],
      "min": [
        0.11372549831867218,
        0.07450980693101883,
        0.023529410362243652,
        0.0
      ],
      "type": "VEC4"
    },
    {
      "bufferView": 1,
      "byteOffset": 524256,
      "componentType": 5126,
      "count": 6824,
      "max": [
        73.12989044189453,
        1.0
      ],
      "min": [
        0.018058599904179573,
        0.0
      ],
      "type": "VEC2"
    },
    {
      "bufferView": 0,
      "byteOffset": 751272,
      "componentType": 5125,
      "count": 19566,
      "type": "SCALAR"
    }
  ],
  "asset": {
    "extras": {
      "author": "VRJuice (https://sketchfab.com/dr490n)",
      "license": "CC-BY-4.0 (http://creativecommons.org/licenses/by/4.0/)",
      "source": "https://sketchfab.com/3d-models/abstract-black-white-54c78dc4097342d891e6d191318a28fc",
      "title": "Abstract Black & White"
    },
    "generator": "Sketchfab-12.65.0",
    "version": "2.0"
  },
  "bufferViews": [
    {
      "buffer": 0,
      "byteLength": 829536,
      "name": "floatBufferViews",
      "target": 34963
    },
    {
      "buffer": 0,
      "byteLength": 578848,
      "byteOffset": 829536,
      "byteStride": 8,
      "name": "floatBufferViews",
      "target": 34962
    },
    {
      "buffer": 0,
      "byteLength": 1736544,
      "byteOffset": 1408384,
      "byteStride": 12,
      "name": "floatBufferViews",
      "target": 34962
    },
    {
      "buffer": 0,
      "byteLength": 1157696,
      "byteOffset": 3144928,
      "byteStride": 16,
      "name": "floatBufferViews",
      "target": 34962
    }
  ],
  "buffers": [
    {
      "byteLength": 4302624,
      "uri": "scene.bin"
    }
  ],
  "materials": [
    {
      "doubleSided": true,
      "name": "RootNode",
      "pbrMetallicRoughness": {
        "metallicFactor": 0.8,
        "roughnessFactor": 0.6
      }
    }
  ],
  "meshes": [
    {
      "name": "All_Flat__0",
      "primitives": [
        {
          "attributes": {
            "COLOR_0": 2,
            "NORMAL": 1,
            "POSITION": 0,
            "TEXCOORD_0": 3
          },
          "indices": 4,
          "material": 0,
          "mode": 4
        }
      ]
    },
    {
      "name": "All_Flat__0",
      "primitives": [
        {
          "attributes": {
            "COLOR_0": 7,
            "NORMAL": 6,
            "POSITION": 5,
            "TEXCOORD_0": 8
          },
          "indices": 9,
          "material": 0,
          "mode": 4
        }
      ]
    }
  ],
  "nodes": [
    {
      "children": [
        1
      ],
      "matrix": [
        1.0,
        0.0,
        0.0,
        0.0,
        0.0,
        2.220446049250313e-16,
        -1.0,
        0.0,
        0.0,
        1.0,
        2.220446049250313e-16,
        0.0,
        0.0,
        0.0,
        0.0,
        1.0
      ],
      "name": "Sketchfab_model"
    },
    {
      "children": [
        2
      ],
      "matrix": [
        1.0,
        0.0,
        0.0,
        0.0,
        0.0,
        0.0,
        1.0,
        0.0,
        0.0,
        -1.0,
        0.0,
        0.0,
        0.0,
        0.0,
        0.0,
        1.0
      ],
      "name": "be8271b8fc02481cae5b3cf4e7698016.fbx"
    },
    {
      "children": [
        3
      ],
      "name": "RootNode"
    },
    {
      "children": [
        4,
        5
      ],
      "name": "All_Flat"
    },
    {
      "mesh": 0,
      "name": "All_Flat__0"
    },
    {
      "mesh": 1,
      "name": "All_Flat__0"
    }
  ],
  "scene": 0,
  "scenes": [
    {
      "name": "Sketchfab_Scene",
      "nodes": [
        0
      ]
    }
  ]
}
