{
  "accessors": [
    {
      "bufferView": 2,
      "componentType": 5126,
      "count": 4,
      "max": [
        0.5621495842933655,
        -0.047295354306697845,
        0.7601852416992188
      ],
      "min": [
        -0.8076585531234741,
        -0.11101088672876358,
        -0.7121019959449768
      ],
      "type": "VEC3"
    },
    {
      "bufferView": 2,
      "byteOffset": 48,
      "componentType": 5126,
      "count": 4,
      "max": [
        -0.023245375603437424,
        -0.9994958639144897,
        -0.02162737213075161
      ],
      "min": [
        -0.023245375603437424,
        -0.9994958639144897,
        -0.02162737213075161
      ],
      "type": "VEC3"
    },
    {
      "bufferView": 1,
      "componentType": 5126,
      "count": 4,
      "max": [
        0.859341561794281,
        0.5172624588012695
      ],
      "min": [
        0.5300593972206116,
        0.16339710354804993
      ],
      "type": "VEC2"
    },
    {
      "bufferView": 0,
      "componentType": 5125,
      "count": 6,
      "type": "SCALAR"
    },
    {
      "bufferView": 2,
      "byteOffset": 96,
      "componentType": 5126,
      "count": 174,
      "max": [
        0.7212333083152771,
        1.1949981451034546,
        1.156744122505188
      ],
      "min": [
        -1.151840090751648,
        0.38816165924072266,
        -1.163520097732544
      ],
      "type": "VEC3"
    },
    {
      "bufferView": 2,
      "byteOffset": 2184,
      "componentType": 5126,
      "count": 174,
      "max": [
        1.0,
        0.8795160055160522,
        0.8538251519203186
      ],
      "min": [
        -1.0,
        -0.8743420839309692,
        -0.8901565670967102
      ],
      "type": "VEC3"
    },
    {
      "bufferView": 1,
      "byteOffset": 32,
      "componentType": 5126,
      "count": 174,
      "max": [
        0.9386013746261597,
        0.9999207258224487
      ],
      "min": [
        7.927843398647383e-05,
        7.927843398647383e-05
      ],
      "type": "VEC2"
    },
    {
      "bufferView": 0,
      "byteOffset": 24,
      "componentType": 5125,
      "count": 264,
      "type": "SCALAR"
    },
    {
      "bufferView": 2,
      "byteOffset": 4272,
      "componentType": 5126,
      "count": 48,
      "max": [
        0.18297234177589417,
        1.5431491136550903,
        0.12079886347055435
      ],
      "min": [
        -0.11405187100172043,
        -0.2931273281574249,
        -0.11405185610055923
      ],
      "type": "VEC3"
    },
    {
      "bufferView": 2,
      "byteOffset": 4848,
      "componentType": 5126,
      "count": 48,
      "max": [
        0.9750205874443054,
        0.9963569641113281,
        0.9758061766624451
      ],
      "min": [
        -0.97498619556427,
        -1.0,
        -0.9758062958717346
      ],
      "type": "VEC3"
    },
    {
      "bufferView": 1,
      "byteOffset": 1424,
      "componentType": 5126,
      "count": 48,
      "max": [
        0.33916687965393066,
        0.9449219703674316
      ],
      "min": [
        0.03991343453526497,
        0.048389315605163574
      ],
      "type": "VEC2"
    },
    {
      "bufferView": 0,
      "byteOffset": 1080,
      "componentType": 5125,
      "count": 84,
      "type": "SCALAR"
    },
    {
      "bufferView": 2,
      "byteOffset": 5424,
      "componentType": 5126,
      "count": 48,
      "max": [
        0.1552402526140213,
        1.516011118888855,
        0.14296501874923706
      ],
      "min": [
        -0.1144542247056961,
        -0.14409852027893066,
        -0.11445426940917969
      ],
      "type": "VEC3"
    },
    {
      "bufferView": 2,
      "byteOffset": 6000,
      "componentType": 5126,
      "count": 48,
      "max": [
        0.9678289890289307,
        0.9961771965026855,
        0.9538028836250305
      ],
      "min": [
        -0.9670863747596741,
        -1.0,
        -0.9538191556930542
      ],
      "type": "VEC3"
    },
    {
      "bufferView": 1,
      "byteOffset": 1808,
      "componentType": 5126,
      "count": 48,
      "max": [
        0.3438156247138977,
        0.9531345367431641
      ],
      "min": [
        0.02893923781812191,
        0.1485222727060318
      ],
      "type": "VEC2"
    },
    {
      "bufferView": 0,
      "byteOffset": 1416,
      "componentType": 5125,
      "count": 84,
      "type": "SCALAR"
    },
    {
      "bufferView": 2,
      "byteOffset": 6576,
      "componentType": 5126,
      "count": 48,
      "max": [
        0.1598336398601532,
        1.536624550819397,
        0.11885381489992142
      ],
      "min": [
        -0.08614256232976913,
        -0.19819165766239166,
        -0.1331244558095932
      ],
      "type": "VEC3"
    },
    {
      "bufferView": 2,
      "byteOffset": 7152,
      "componentType": 5126,
      "count": 48,
      "max": [
        0.9748375415802002,
        1.0,
        0.9405823945999146
      ],
      "min": [
        -0.9747801423072815,
        -0.9974445104598999,
        -0.9406956434249878
      ],
      "type": "VEC3"
    },
    {
      "bufferView": 1,
      "byteOffset": 2192,
      "componentType": 5126,
      "count": 48,
      "max": [
        0.3768717050552368,
        0.9499107599258423
      ],
      "min": [
        0.1337376832962036,
        0.05082964897155762
      ],
      "type": "VEC2"
    },
    {
      "bufferView": 0,
      "byteOffset": 1752,
      "componentType": 5125,
      "count": 84,
      "type": "SCALAR"
    },
    {
      "bufferView": 2,
      "byteOffset": 7728,
      "componentType": 5126,
      "count": 48,
      "max": [
        0.14164920151233673,
        1.536624550819397,
        0.14164920151233673
      ],
      "min": [
        -0.14164918661117554,
        -0.11405184119939804,
        -0.14164920151233673
      ],
      "type": "VEC3"
    },
    {
      "bufferView": 2,
      "byteOffset": 8304,
      "componentType": 5126,
      "count": 48,
      "max": [
        0.9237693548202515,
        1.0,
        0.9237693548202515
      ],
      "min": [
        -0.9237693548202515,
        -1.0,
        -0.9237694144248962
      ],
      "type": "VEC3"
    },
    {
      "bufferView": 1,
      "byteOffset": 2576,
      "componentType": 5126,
      "count": 48,
      "max": [
        0.3428197205066681,
        0.9538424611091614
      ],
      "min": [
        0.03268035873770714,
        0.20095521211624146
      ],
      "type": "VEC2"
    },
    {
      "bufferView": 0,
      "byteOffset": 2088,
      "componentType": 5125,
      "count": 84,
      "type": "SCALAR"
    },
    {
      "bufferView": 2,
      "byteOffset": 8880,
      "componentType": 5126,
      "count": 48,
      "max": [
        0.09629930555820465,
        1.565041422843933,
        0.19352424144744873
      ],
      "min": [
        -0.09629912674427032,
        -0.11291742324829102,
        -0.11405184119939804
      ],
      "type": "VEC3"
    },
    {
      "bufferView": 2,
      "byteOffset": 9456,
      "componentType": 5126,
      "count": 48,
      "max": [
        0.9438030123710632,
        1.0,
        0.8970402479171753
      ],
      "min": [
        -0.9438936114311218,
        -1.0,
        -0.8966333270072937
      ],
      "type": "VEC3"
    },
    {
      "bufferView": 1,
      "byteOffset": 2960,
      "componentType": 5126,
      "count": 48,
      "max": [
        0.3525572717189789,
        0.9527170658111572
      ],
      "min": [
        0.03645453229546547,
        0.23649273812770844
      ],
      "type": "VEC2"
    },
    {
      "bufferView": 0,
      "byteOffset": 2424,
      "componentType": 5125,
      "count": 84,
      "type": "SCALAR"
    },
    {
      "bufferView": 2,
      "byteOffset": 10032,
      "componentType": 5126,
      "count": 48,
      "max": [
        0.13210277259349823,
        1.5212619304656982,
        0.10155124217271805
      ],
      "min": [
        -0.1596783995628357,
        -0.1591062992811203,
        -0.19022992253303528
      ],
      "type": "VEC3"
    },
    {
      "bufferView": 2,
      "byteOffset": 10608,
      "componentType": 5126,
      "count": 48,
      "max": [
        0.9238287806510925,
        1.0,
        0.9238793253898621
      ],
      "min": [
        -0.9235758781433105,
        -1.0,
        -0.9227542877197266
      ],
      "type": "VEC3"
    },
    {
      "bufferView": 1,
      "byteOffset": 3344,
      "componentType": 5126,
      "count": 48,
      "max": [
        0.33401787281036377,
        0.9360318183898926
      ],
      "min": [
        0.041945867240428925,
        0.0791063904762268
      ],
      "type": "VEC2"
    },
    {
      "bufferView": 0,
      "byteOffset": 2760,
      "componentType": 5125,
      "count": 84,
      "type": "SCALAR"
    },
    {
      "bufferView": 2,
      "byteOffset": 11184,
      "componentType": 5126,
      "count": 48,
      "max": [
        0.09629930555820465,
        1.536624550819397,
        0.11405185610055923
      ],
      "min": [
        -0.09629923105239868,
        -0.26270046830177307,
        -0.11405185610055923
      ],
      "type": "VEC3"
    },
    {
      "bufferView": 2,
      "byteOffset": 11760,
      "componentType": 5126,
      "count": 48,
      "max": [
        0.9439350962638855,
        1.0,
        0.8977869153022766
      ],
      "min": [
        -0.9439350366592407,
        -1.0,
        -0.8977869153022766
      ],
      "type": "VEC3"
    },
    {
      "bufferView": 1,
      "byteOffset": 3728,
      "componentType": 5126,
      "count": 48,
      "max": [
        0.3336524963378906,
        0.9351921081542969
      ],
      "min": [
        0.04914885759353638,
        0.098806232213974
      ],
      "type": "VEC2"
    },
    {
      "bufferView": 0,
      "byteOffset": 3096,
      "componentType": 5125,
      "count": 84,
      "type": "SCALAR"
    },
    {
      "bufferView": 2,
      "byteOffset": 12336,
      "componentType": 5126,
      "count": 48,
      "max": [
        0.09452807903289795,
        1.873984932899475,
        0.4382423460483551
      ],
      "min": [
        -0.17776741087436676,
        -0.15394620597362518,
        0.21013861894607544
      ],
      "type": "VEC3"
    },
    {
      "bufferView": 2,
      "byteOffset": 12912,
      "componentType": 5126,
      "count": 48,
      "max": [
        0.9748359322547913,
        0.9912017583847046,
        0.9613115787506104
      ],
      "min": [
        -0.9744709730148315,
        -1.0,
        -0.9612843990325928
      ],
      "type": "VEC3"
    },
    {
      "bufferView": 1,
      "byteOffset": 4112,
      "componentType": 5126,
      "count": 48,
      "max": [
        0.3778899312019348,
        0.9454512596130371
      ],
      "min": [
        0.035755276679992676,
        0.029747162014245987
      ],
      "type": "VEC2"
    },
    {
      "bufferView": 0,
      "byteOffset": 3432,
      "componentType": 5125,
      "count": 84,
      "type": "SCALAR"
    },
    {
      "bufferView": 2,
      "byteOffset": 13488,
      "componentType": 5126,
      "count": 48,
      "max": [
        0.1220393180847168,
        1.8705837726593018,
        0.4424999952316284
      ],
      "min": [
        -0.12085631489753723,
        -0.1728391796350479,
        0.21708941459655762
      ],
      "type": "VEC3"
    },
    {
      "bufferView": 2,
      "byteOffset": 14064,
      "componentType": 5126,
      "count": 48,
      "max": [
        0.9833642840385437,
        0.9948329329490662,
        0.9662547707557678
      ],
      "min": [
        -0.9834042191505432,
        -1.0,
        -0.9662085771560669
      ],
      "type": "VEC3"
    },
    {
      "bufferView": 1,
      "byteOffset": 4496,
      "componentType": 5126,
      "count": 48,
      "max": [
        0.3554614782333374,
        0.9396331906318665
      ],
      "min": [
        0.050609953701496124,
        0.06794223189353943
      ],
      "type": "VEC2"
    },
    {
      "bufferView": 0,
      "byteOffset": 3768,
      "componentType": 5125,
      "count": 84,
      "type": "SCALAR"
    },
    {
      "bufferView": 2,
      "byteOffset": 14640,
      "componentType": 5126,
      "count": 48,
      "max": [
        0.42571890354156494,
        1.8608150482177734,
        0.17362579703330994
      ],
      "min": [
        0.2231869250535965,
        -0.11405181884765625,
        -0.11549795418977737
      ],
      "type": "VEC3"
    },
    {
      "bufferView": 2,
      "byteOffset": 15216,
      "componentType": 5126,
      "count": 48,
      "max": [
        0.9374500513076782,
        1.0,
        0.9073253870010376
      ],
      "min": [
        -0.9374502301216125,
        -1.0,
        -0.907325267791748
      ],
      "type": "VEC3"
    },
    {
      "bufferView": 1,
      "byteOffset": 4880,
      "componentType": 5126,
      "count": 48,
      "max": [
        0.3590543568134308,
        0.936489999294281
      ],
      "min": [
        0.044128142297267914,
        0.030299857258796692
      ],
      "type": "VEC2"
    },
    {
      "bufferView": 0,
      "byteOffset": 4104,
      "componentType": 5125,
      "count": 84,
      "type": "SCALAR"
    },
    {
      "bufferView": 2,
      "byteOffset": 15792,
      "componentType": 5126,
      "count": 96,
      "max": [
        0.10099175572395325,
        1.8928403854370117,
        0.11270589381456375
      ],
      "min": [
        -0.1009916365146637,
        -0.16270838677883148,
        -0.11270526796579361
      ],
      "type": "VEC3"
    },
    {
      "bufferView": 2,
      "byteOffset": 16944,
      "componentType": 5126,
      "count": 96,
      "max": [
        0.9844703674316406,
        1.0,
        0.971900463104248
      ],
      "min": [
        -0.9856315851211548,
        -1.0,
        -0.9719220995903015
      ],
      "type": "VEC3"
    },
    {
      "bufferView": 1,
      "byteOffset": 5264,
      "componentType": 5126,
      "count": 96,
      "max": [
        0.3646767735481262,
        0.9390210509300232
      ],
      "min": [
        0.06467340141534805,
        0.2536075711250305
      ],
      "type": "VEC2"
    },
    {
      "bufferView": 0,
      "byteOffset": 4440,
      "componentType": 5125,
      "count": 168,
      "type": "SCALAR"
    },
    {
      "bufferView": 2,
      "byteOffset": 18096,
      "componentType": 5126,
      "count": 48,
      "max": [
        0.1009916365146637,
        1.8608150482177734,
        0.14449331164360046
      ],
      "min": [
        -0.1009916365146637,
        -0.11405185610055923,
        -0.1127052903175354
      ],
      "type": "VEC3"
    },
    {
      "bufferView": 2,
      "byteOffset": 18672,
      "componentType": 5126,
      "count": 48,
      "max": [
        0.9650049805641174,
        1.0,
        0.9544535875320435
      ],
      "min": [
        -0.965000569820404,
        -1.0,
        -0.9542529582977295
      ],
      "type": "VEC3"
    },
    {
      "bufferView": 1,
      "byteOffset": 6032,
      "componentType": 5126,
      "count": 48,
      "max": [
        0.2868712544441223,
        0.9286083579063416
      ],
      "min": [
        0.045779820531606674,
        0.04536108672618866
      ],
      "type": "VEC2"
    },
    {
      "bufferView": 0,
      "byteOffset": 5112,
      "componentType": 5125,
      "count": 84,
      "type": "SCALAR"
    },
    {
      "bufferView": 2,
      "byteOffset": 19248,
      "componentType": 5126,
      "count": 24,
      "max": [
        0.04470626637339592,
        1.4254543781280518,
        0.06322410702705383
      ],
      "min": [
        -0.06322410702705383,
        -0.06322410702705383,
        -0.06322429329156876
      ],
      "type": "VEC3"
    },
    {
      "bufferView": 2,
      "byteOffset": 19536,
      "componentType": 5126,
      "count": 24,
      "max": [
        0.3826834261417389,
        1.4122421987394773e-07,
        0.9238795638084412
      ],
      "min": [
        -0.9238795638084412,
        -1.3383959185375716e-07,
        -0.9238795638084412
      ],
      "type": "VEC3"
    },
    {
      "bufferView": 1,
      "byteOffset": 6416,
      "componentType": 5126,
      "count": 24,
      "max": [
        0.2484627664089203,
        0.5486451387405396
      ],
      "min": [
        0.1849205195903778,
        0.22283916175365448
      ],
      "type": "VEC2"
    },
    {
      "bufferView": 0,
      "byteOffset": 5448,
      "componentType": 5125,
      "count": 36,
      "type": "SCALAR"
    },
    {
      "bufferView": 2,
      "byteOffset": 19824,
      "componentType": 5126,
      "count": 136,
      "max": [
        0.14264711737632751,
        0.16830869019031525,
        0.14669950306415558
      ],
      "min": [
        -0.14264720678329468,
        -0.0889587327837944,
        -0.14669950306415558
      ],
      "type": "VEC3"
    },
    {
      "bufferView": 2,
      "byteOffset": 21456,
      "componentType": 5126,
      "count": 136,
      "max": [
        0.927587628364563,
        0.957179069519043,
        0.9200059175491333
      ],
      "min": [
        -0.9275876879692078,
        -1.0,
        -0.9200059175491333
      ],
      "type": "VEC3"
    },
    {
      "bufferView": 1,
      "byteOffset": 6608,
      "componentType": 5126,
      "count": 136,
      "max": [
        0.37055838108062744,
        0.8643667697906494
      ],
      "min": [
        0.037627916783094406,
        0.43032652139663696
      ],
      "type": "VEC2"
    },
    {
      "bufferView": 0,
      "byteOffset": 5592,
      "componentType": 5125,
      "count": 210,
      "type": "SCALAR"
    },
    {
      "bufferView": 2,
      "byteOffset": 23088,
      "componentType": 5126,
      "count": 3,
      "max": [
        0.10837256163358688,
        -0.08475227653980255,
        0.8521215915679932
      ],
      "min": [
        -0.389573872089386,
        -0.08475237339735031,
        -0.8328946828842163
      ],
      "type": "VEC3"
    },
    {
      "bufferView": 2,
      "byteOffset": 23124,
      "componentType": 5126,
      "count": 3,
      "max": [
        2.1557514173764503e-07,
        -1.0,
        3.160738781815553e-09
      ],
      "min": [
        2.1557514173764503e-07,
        -1.0,
        3.160738781815553e-09
      ],
      "type": "VEC3"
    },
    {
      "bufferView": 1,
      "byteOffset": 7696,
      "componentType": 5126,
      "count": 3,
      "max": [
        0.9233101010322571,
        0.8060972690582275
      ],
      "min": [
        0.39462560415267944,
        0.6470388174057007
      ],
      "type": "VEC2"
    },
    {
      "bufferView": 0,
      "byteOffset": 6432,
      "componentType": 5125,
      "count": 3,
      "type": "SCALAR"
    },
    {
      "bufferView": 2,
      "byteOffset": 23160,
      "componentType": 5126,
      "count": 50,
      "max": [
        0.19952352344989777,
        0.004926756024360657,
        0.19539885222911835
      ],
      "min": [
        -0.19952352344989777,
        -0.042469948530197144,
        -0.19539885222911835
      ],
      "type": "VEC3"
    },
    {
      "bufferView": 2,
      "byteOffset": 23760,
      "componentType": 5126,
      "count": 50,
      "max": [
        1.0,
        0.0,
        0.9991120100021362
      ],
      "min": [
        -1.0,
        -1.0,
        -1.0
      ],
      "type": "VEC3"
    },
    {
      "bufferView": 1,
      "byteOffset": 7720,
      "componentType": 5126,
      "count": 50,
      "max": [
        0.9900815486907959,
        0.8229407668113708
      ],
      "min": [
        0.5590716600418091,
        0.6881586909294128
      ],
      "type": "VEC2"
    },
    {
      "bufferView": 0,
      "byteOffset": 6444,
      "componentType": 5125,
      "count": 84,
      "type": "SCALAR"
    },
    {
      "bufferView": 2,
      "byteOffset": 24360,
      "componentType": 5126,
      "count": 90,
      "max": [
        0.29302164912223816,
        -0.08475227653980255,
        0.8521215915679932
      ],
      "min": [
        0.08703142404556274,
        -0.28538286685943604,
        -0.8328946828842163
      ],
      "type": "VEC3"
    },
    {
      "bufferView": 2,
      "byteOffset": 25440,
      "componentType": 5126,
      "count": 90,
      "max": [
        0.9252419471740723,
        0.4278044104576111,
        0.08656571805477142
      ],
      "min": [
        -0.8606319427490234,
        -0.854175865650177,
        -0.12444707006216049
      ],
      "type": "VEC3"
    },
    {
      "bufferView": 1,
      "byteOffset": 8120,
      "componentType": 5126,
      "count": 90,
      "max": [
        0.9294883012771606,
        0.9504866003990173
      ],
      "min": [
        0.447027325630188,
        0.8304420113563538
      ],
      "type": "VEC2"
    },
    {
      "bufferView": 0,
      "byteOffset": 6780,
      "componentType": 5125,
      "count": 132,
      "type": "SCALAR"
    },
    {
      "bufferView": 2,
      "byteOffset": 26520,
      "componentType": 5126,
      "count": 48,
      "max": [
        0.18664273619651794,
        1.5355684757232666,
        0.13924963772296906
      ],
      "min": [
        -0.11915598809719086,
        -0.2241850346326828,
        -0.15509307384490967
      ],
      "type": "VEC3"
    },
    {
      "bufferView": 2,
      "byteOffset": 27096,
      "componentType": 5126,
      "count": 48,
      "max": [
        0.9375700354576111,
        0.9977995157241821,
        0.9210351705551147
      ],
      "min": [
        -0.9372549653053284,
        -1.0,
        -0.9202595353126526
      ],
      "type": "VEC3"
    },
    {
      "bufferView": 1,
      "byteOffset": 8840,
      "componentType": 5126,
      "count": 48,
      "max": [
        0.38213562965393066,
        0.9249029755592346
      ],
      "min": [
        0.12863361835479736,
        0.09906760603189468
      ],
      "type": "VEC2"
    },
    {
      "bufferView": 0,
      "byteOffset": 7308,
      "componentType": 5125,
      "count": 84,
      "type": "SCALAR"
    },
    {
      "bufferView": 2,
      "byteOffset": 27672,
      "componentType": 5126,
      "count": 96,
      "max": [
        0.09847619384527206,
        1.8572108745574951,
        0.12945418059825897
      ],
      "min": [
        -0.12830519676208496,
        -0.13688741624355316,
        -0.12363074719905853
      ],
      "type": "VEC3"
    },
    {
      "bufferView": 2,
      "byteOffset": 28824,
      "componentType": 5126,
      "count": 96,
      "max": [
        0.9784566760063171,
        1.0,
        0.9583337903022766
      ],
      "min": [
        -0.9783817529678345,
        -1.0,
        -0.9573501348495483
      ],
      "type": "VEC3"
    },
    {
      "bufferView": 1,
      "byteOffset": 9224,
      "componentType": 5126,
      "count": 96,
      "max": [
        0.3646767735481262,
        0.9390210509300232
      ],
      "min": [
        0.06467340141534805,
        0.2536075711250305
      ],
      "type": "VEC2"
    },
    {
      "bufferView": 0,
      "byteOffset": 7644,
      "componentType": 5125,
      "count": 168,
      "type": "SCALAR"
    },
    {
      "bufferView": 2,
      "byteOffset": 29976,
      "componentType": 5126,
      "count": 136,
      "max": [
        0.14264711737632751,
        0.16173069179058075,
        0.14669950306415558
      ],
      "min": [
        -0.14264720678329468,
        -0.1286662220954895,
        -0.14669950306415558
      ],
      "type": "VEC3"
    },
    {
      "bufferView": 2,
      "byteOffset": 31608,
      "componentType": 5126,
      "count": 136,
      "max": [
        0.9275876879692078,
        0.957179069519043,
        0.9200059771537781
      ],
      "min": [
        -0.9275876879692078,
        -1.0,
        -0.9200057983398438
      ],
      "type": "VEC3"
    },
    {
      "bufferView": 1,
      "byteOffset": 9992,
      "componentType": 5126,
      "count": 136,
      "max": [
        0.37055838108062744,
        0.8643667697906494
      ],
      "min": [
        0.037627916783094406,
        0.43032652139663696
      ],
      "type": "VEC2"
    },
    {
      "bufferView": 0,
      "byteOffset": 8316,
      "componentType": 5125,
      "count": 210,
      "type": "SCALAR"
    },
    {
      "bufferView": 2,
      "byteOffset": 33240,
      "componentType": 5126,
      "count": 136,
      "max": [
        0.14264711737632751,
        0.16173067688941956,
        0.14669950306415558
      ],
      "min": [
        -0.14264722168445587,
        -0.1286662220954895,
        -0.14669954776763916
      ],
      "type": "VEC3"
    },
    {
      "bufferView": 2,
      "byteOffset": 34872,
      "componentType": 5126,
      "count": 136,
      "max": [
        0.9275876879692078,
        0.957179069519043,
        0.9200059771537781
      ],
      "min": [
        -0.9275876879692078,
        -1.0,
        -0.9200059771537781
      ],
      "type": "VEC3"
    },
    {
      "bufferView": 1,
      "byteOffset": 11080,
      "componentType": 5126,
      "count": 136,
      "max": [
        0.37055838108062744,
        0.8643667697906494
      ],
      "min": [
        0.037627916783094406,
        0.43032652139663696
      ],
      "type": "VEC2"
    },
    {
      "bufferView": 0,
      "byteOffset": 9156,
      "componentType": 5125,
      "count": 210,
      "type": "SCALAR"
    },
    {
      "bufferView": 2,
      "byteOffset": 36504,
      "componentType": 5126,
      "count": 24,
      "max": [
        0.04470626637339592,
        1.4254543781280518,
        0.06322410702705383
      ],
      "min": [
        -0.06322410702705383,
        -0.06322410702705383,
        -0.06322429329156876
      ],
      "type": "VEC3"
    },
    {
      "bufferView": 2,
      "byteOffset": 36792,
      "componentType": 5126,
      "count": 24,
      "max": [
        0.3826834261417389,
        1.4122421987394773e-07,
        0.9238795638084412
      ],
      "min": [
        -0.9238795638084412,
        -1.3383959185375716e-07,
        -0.9238795638084412
      ],
      "type": "VEC3"
    },
    {
      "bufferView": 1,
      "byteOffset": 12168,
      "componentType": 5126,
      "count": 24,
      "max": [
        0.2484627664089203,
        0.5486451387405396
      ],
      "min": [
        0.1849205195903778,
        0.22283916175365448
      ],
      "type": "VEC2"
    },
    {
      "bufferView": 0,
      "byteOffset": 9996,
      "componentType": 5125,
      "count": 36,
      "type": "SCALAR"
    },
    {
      "bufferView": 2,
      "byteOffset": 37080,
      "componentType": 5126,
      "count": 136,
      "max": [
        0.14264711737632751,
        0.16173064708709717,
        0.14669950306415558
      ],
      "min": [
        -0.14264720678329468,
        -0.1286662220954895,
        -0.14669950306415558
      ],
      "type": "VEC3"
    },
    {
      "bufferView": 2,
      "byteOffset": 38712,
      "componentType": 5126,
      "count": 136,
      "max": [
        0.9275876879692078,
        0.957179069519043,
        0.9200058579444885
      ],
      "min": [
        -0.9275876879692078,
        -1.0,
        -0.9200058579444885
      ],
      "type": "VEC3"
    },
    {
      "bufferView": 1,
      "byteOffset": 12360,
      "componentType": 5126,
      "count": 136,
      "max": [
        0.37055838108062744,
        0.8643667697906494
      ],
      "min": [
        0.037627916783094406,
        0.43032652139663696
      ],
      "type": "VEC2"
    },
    {
      "bufferView": 0,
      "byteOffset": 10140,
      "componentType": 5125,
      "count": 210,
      "type": "SCALAR"
    },
    {
      "bufferView": 2,
      "byteOffset": 40344,
      "componentType": 5126,
      "count": 136,
      "max": [
        0.14264711737632751,
        0.16173067688941956,
        0.14669950306415558
      ],
      "min": [
        -0.14264719188213348,
        -0.08394837379455566,
        -0.14669954776763916
      ],
      "type": "VEC3"
    },
    {
      "bufferView": 2,
      "byteOffset": 41976,
      "componentType": 5126,
      "count": 136,
      "max": [
        0.927587628364563,
        0.957179069519043,
        0.9200058579444885
      ],
      "min": [
        -0.9275876879692078,
        -1.0,
        -0.9200058579444885
      ],
      "type": "VEC3"
    },
    {
      "bufferView": 1,
      "byteOffset": 13448,
      "componentType": 5126,
      "count": 136,
      "max": [
        0.37055838108062744,
        0.8643667697906494
      ],
      "min": [
        0.037627916783094406,
        0.43032652139663696
      ],
      "type": "VEC2"
    },
    {
      "bufferView": 0,
      "byteOffset": 10980,
      "componentType": 5125,
      "count": 210,
      "type": "SCALAR"
    },
    {
      "bufferView": 2,
      "byteOffset": 43608,
      "componentType": 5126,
      "count": 3,
      "max": [
        0.10837256163358688,
        -0.08475227653980255,
        0.8521215915679932
      ],
      "min": [
        -0.3702327609062195,
        -0.08475237339735031,
        -0.8328946828842163
      ],
      "type": "VEC3"
    },
    {
      "bufferView": 2,
      "byteOffset": 43644,
      "componentType": 5126,
      "count": 3,
      "max": [
        2.2439147073782806e-07,
        -1.0,
        3.1091691443663194e-09
      ],
      "min": [
        2.2439147073782806e-07,
        -1.0,
        3.1091691443663194e-09
      ],
      "type": "VEC3"
    },
    {
      "bufferView": 1,
      "byteOffset": 14536,
      "componentType": 5126,
      "count": 3,
      "max": [
        0.9233101010322571,
        0.8060972690582275
      ],
      "min": [
        0.39462560415267944,
        0.6470388174057007
      ],
      "type": "VEC2"
    },
    {
      "bufferView": 0,
      "byteOffset": 11820,
      "componentType": 5125,
      "count": 3,
      "type": "SCALAR"
    },
    {
      "bufferView": 2,
      "byteOffset": 43680,
      "componentType": 5126,
      "count": 12,
      "max": [
        0.28206151723861694,
        -0.08475227653980255,
        0.8521215915679932
      ],
      "min": [
        0.09713710844516754,
        -0.28058844804763794,
        -0.8328946828842163
      ],
      "type": "VEC3"
    },
    {
      "bufferView": 2,
      "byteOffset": 43824,
      "componentType": 5126,
      "count": 12,
      "max": [
        0.9170584678649902,
        0.39875295758247375,
        0.0031047402881085873
      ],
      "min": [
        -0.8339362740516663,
        -0.8541755676269531,
        -0.0
      ],
      "type": "VEC3"
    },
    {
      "bufferView": 1,
      "byteOffset": 14560,
      "componentType": 5126,
      "count": 12,
      "max": [
        0.9294883012771606,
        0.9504866003990173
      ],
      "min": [
        0.447027325630188,
        0.8304420113563538
      ],
      "type": "VEC2"
    },
    {
      "bufferView": 0,
      "byteOffset": 11832,
      "componentType": 5125,
      "count": 18,
      "type": "SCALAR"
    },
    {
      "bufferView": 2,
      "byteOffset": 43968,
      "componentType": 5126,
      "count": 320,
      "max": [
        0.08980301767587662,
        0.01896957866847515,
        0.05698446184396744
      ],
      "min": [
        -0.03754907846450806,
        -0.02144421823322773,
        -0.07426594197750092
      ],
      "type": "VEC3"
    },
    {
      "bufferView": 2,
      "byteOffset": 47808,
      "componentType": 5126,
      "count": 320,
      "max": [
        0.999241828918457,
        0.9981716871261597,
        0.9997832775115967
      ],
      "min": [
        -0.9992418885231018,
        0.0,
        -0.9997832775115967
      ],
      "type": "VEC3"
    },
    {
      "bufferView": 1,
      "byteOffset": 14656,
      "componentType": 5126,
      "count": 320,
      "max": [
        0.9667519330978394,
        0.6439910531044006
      ],
      "min": [
        0.9014120101928711,
        0.5808830857276917
      ],
      "type": "VEC2"
    },
    {
      "bufferView": 0,
      "byteOffset": 11904,
      "componentType": 5125,
      "count": 534,
      "type": "SCALAR"
    }
  ],
  "asset": {
    "extras": {
      "author": "reramil (https://sketchfab.com/reramil)",
      "license": "CC-BY-4.0 (http://creativecommons.org/licenses/by/4.0/)",
      "source": "https://sketchfab.com/3d-models/old-barn-96cdbcedd8d04d64a4abcf801c0ca1dd",
      "title": "Old Barn"
    },
    "generator": "Sketchfab-14.58.0",
    "version": "2.0"
  },
  "bufferViews": [
    {
      "buffer": 0,
      "byteLength": 14040,
      "name": "floatBufferViews",
      "target": 34963
    },
    {
      "buffer": 0,
      "byteLength": 17216,
      "byteOffset": 14040,
      "byteStride": 8,
      "name": "floatBufferViews",
      "target": 34962
    },
    {
      "buffer": 0,
      "byteLength": 51648,
      "byteOffset": 31256,
      "byteStride": 12,
      "name": "floatBufferViews",
      "target": 34962
    }
  ],
  "buffers": [
    {
      "byteLength": 82904,
      "uri": "scene.bin"
    }
  ],
  "images": [
    {
      "uri": "textures/Material.002_baseColor.jpeg"
    }
  ],
  "materials": [
    {
      "doubleSided": true,
      "name": "Material.002",
      "pbrMetallicRoughness": {
        "baseColorTexture": {
          "index": 0
        },
        "metallicFactor": 0.0,
        "roughnessFactor": 0.5
      }
    }
  ],
  "meshes": [
    {
      "name": "Object_0",
      "primitives": [
        {
          "attributes": {
            "NORMAL": 1,
            "POSITION": 0,
            "TEXCOORD_0": 2
          },
          "indices": 3,
          "material": 0,
          "mode": 4
        }
      ]
    },
    {
      "name": "Object_1",
      "primitives": [
        {
          "attributes": {
            "NORMAL": 5,
            "POSITION": 4,
            "TEXCOORD_0": 6
          },
          "indices": 7,
          "material": 0,
          "mode": 4
        }
      ]
    },
    {
      "name": "Object_2",
      "primitives": [
        {
          "attributes": {
            "NORMAL": 9,
            "POSITION": 8,
            "TEXCOORD_0": 10
          },
          "indices": 11,
          "material": 0,
          "mode": 4
        }
      ]
    },
    {
      "name": "Object_3",
      "primitives": [
        {
          "attributes": {
            "NORMAL": 13,
            "POSITION": 12,
            "TEXCOORD_0": 14
          },
          "indices": 15,
          "material": 0,
          "mode": 4
        }
      ]
    },
    {
      "name": "Object_4",
      "primitives": [
        {
          "attributes": {
            "NORMAL": 17,
            "POSITION": 16,
            "TEXCOORD_0": 18
          },
          "indices": 19,
          "material": 0,
          "mode": 4
        }
      ]
    },
    {
      "name": "Object_5",
      "primitives": [
        {
          "attributes": {
            "NORMAL": 21,
            "POSITION": 20,
            "TEXCOORD_0": 22
          },
          "indices": 23,
          "material": 0,
          "mode": 4
        }
      ]
    },
    {
      "name": "Object_6",
      "primitives": [
        {
          "attributes": {
            "NORMAL": 25,
            "POSITION": 24,
            "TEXCOORD_0": 26
          },
          "indices": 27,
          "material": 0,
          "mode": 4
        }
      ]
    },
    {
      "name": "Object_7",
      "primitives": [
        {
          "attributes": {
            "NORMAL": 29,
            "POSITION": 28,
            "TEXCOORD_0": 30
          },
          "indices": 31,
          "material": 0,
          "mode": 4
        }
      ]
    },
    {
      "name": "Object_8",
      "primitives": [
        {
          "attributes": {
            "NORMAL": 33,
            "POSITION": 32,
            "TEXCOORD_0": 34
          },
          "indices": 35,
          "material": 0,
          "mode": 4
        }
      ]
    },
    {
      "name": "Object_9",
      "primitives": [
        {
          "attributes": {
            "NORMAL": 37,
            "POSITION": 36,
            "TEXCOORD_0": 38
          },
          "indices": 39,
          "material": 0,
          "mode": 4
        }
      ]
    },
    {
      "name": "Object_10",
      "primitives": [
        {
          "attributes": {
            "NORMAL": 41,
            "POSITION": 40,
            "TEXCOORD_0": 42
          },
          "indices": 43,
          "material": 0,
          "mode": 4
        }
      ]
    },
    {
      "name": "Object_11",
      "primitives": [
        {
          "attributes": {
            "NORMAL": 45,
            "POSITION": 44,
            "TEXCOORD_0": 46
          },
          "indices": 47,
          "material": 0,
          "mode": 4
        }
      ]
    },
    {
      "name": "Object_12",
      "primitives": [
        {
          "attributes": {
            "NORMAL": 49,
            "POSITION": 48,
            "TEXCOORD_0": 50
          },
          "indices": 51,
          "material": 0,
          "mode": 4
        }
      ]
    },
    {
      "name": "Object_13",
      "primitives": [
        {
          "attributes": {
            "NORMAL": 53,
            "POSITION": 52,
            "TEXCOORD_0": 54
          },
          "indices": 55,
          "material": 0,
          "mode": 4
        }
      ]
    },
    {
      "name": "Object_14",
      "primitives": [
        {
          "attributes": {
            "NORMAL": 57,
            "POSITION": 56,
            "TEXCOORD_0": 58
          },
          "indices": 59,
          "material": 0,
          "mode": 4
        }
      ]
    },
    {
      "name": "Object_15",
      "primitives": [
        {
          "attributes": {
            "NORMAL": 61,
            "POSITION": 60,
            "TEXCOORD_0": 62
          },
          "indices": 63,
          "material": 0,
          "mode": 4
        }
      ]
    },
    {
      "name": "Object_16",
      "primitives": [
        {
          "attributes": {
            "NORMAL": 65,
            "POSITION": 64,
            "TEXCOORD_0": 66
          },
          "indices": 67,
          "material": 0,
          "mode": 4
        }
      ]
    },
    {
      "name": "Object_17",
      "primitives": [
        {
          "attributes": {
            "NORMAL": 69,
            "POSITION": 68,
            "TEXCOORD_0": 70
          },
          "indices": 71,
          "material": 0,
          "mode": 4
        }
      ]
    },
    {
      "name": "Object_18",
      "primitives": [
        {
          "attributes": {
            "NORMAL": 73,
            "POSITION": 72,
            "TEXCOORD_0": 74
          },
          "indices": 75,
          "material": 0,
          "mode": 4
        }
      ]
    },
    {
      "name": "Object_19",
      "primitives": [
        {
          "attributes": {
            "NORMAL": 77,
            "POSITION": 76,
            "TEXCOORD_0": 78
          },
          "indices": 79,
          "material": 0,
          "mode": 4
        }
      ]
    },
    {
      "name": "Object_20",
      "primitives": [
        {
          "attributes": {
            "NORMAL": 81,
            "POSITION": 80,
            "TEXCOORD_0": 82
          },
          "indices": 83,
          "material": 0,
          "mode": 4
        }
      ]
    },
    {
      "name": "Object_21",
      "primitives": [
        {
          "attributes": {
            "NORMAL": 85,
            "POSITION": 84,
            "TEXCOORD_0": 86
          },
          "indices": 87,
          "material": 0,
          "mode": 4
        }
      ]
    },
    {
      "name": "Object_22",
      "primitives": [
        {
          "attributes": {
            "NORMAL": 89,
            "POSITION": 88,
            "TEXCOORD_0": 90
          },
          "indices": 91,
          "material": 0,
          "mode": 4
        }
      ]
    },
    {
      "name": "Object_23",
      "primitives": [
        {
          "attributes": {
            "NORMAL": 93,
            "POSITION": 92,
            "TEXCOORD_0": 94
          },
          "indices": 95,
          "material": 0,
          "mode": 4
        }
      ]
    },
    {
      "name": "Object_24",
      "primitives": [
        {
          "attributes": {
            "NORMAL": 97,
            "POSITION": 96,
            "TEXCOORD_0": 98
          },
          "indices": 99,
          "material": 0,
          "mode": 4
        }
      ]
    },
    {
      "name": "Object_25",
      "primitives": [
        {
          "attributes": {
            "NORMAL": 101,
            "POSITION": 100,
            "TEXCOORD_0": 102
          },
          "indices": 103,
          "material": 0,
          "mode": 4
        }
      ]
    },
    {
      "name": "Object_26",
      "primitives": [
        {
          "attributes": {
            "NORMAL": 105,
            "POSITION": 104,
            "TEXCOORD_0": 106
          },
          "indices": 107,
          "material": 0,
          "mode": 4
        }
      ]
    },
    {
      "name": "Object_27",
      "primitives": [
        {
          "attributes": {
            "NORMAL": 109,
            "POSITION": 108,
            "TEXCOORD_0": 110
          },
          "indices": 111,
          "material": 0,
          "mode": 4
        }
      ]
    },
    {
      "name": "Object_28",
      "primitives": [
        {
          "attributes": {
            "NORMAL": 113,
            "POSITION": 112,
            "TEXCOORD_0": 114
          },
          "indices": 115,
          "material": 0,
          "mode": 4
        }
      ]
    }
  ],
  "nodes": [
    {
      "children": [
        1
      ],
      "matrix": [
        -4.011445864847104e-16,
        1.1062202016480945e-16,
        -1.8065946102142334,
        0.0,
        -1.8065946102142334,
        2.9052256631990083e-16,
        4.0114458648471043e-16,
        0.0,
        2.9052256631990093e-16,
        1.8065946102142334,
        1.1062202016480945e-16,
        0.0,
        0.0,
        0.0,
        0.0,
        1.0
      ],
      "name": "Sketchfab_model"
    },
    {
      "children": [
        2
      ],
      "name": "root"
    },
    {
      "children": [
        3,
        5,
        7,
        9,
        11,
        13,
        15,
        17,
        19,
        21,
        23,
        25,
        27,
        29,
        31,
        33,
        35,
        37,
        39,
        41,
        43,
        45,
        47,
        49,
        51,
        53,
        55,
        57,
        59
      ],
      "matrix": [
        1.0,
        0.0,
        0.0,
        0.0,
        0.0,
        2.220446049250313e-16,
        1.0,
        0.0,
        0.0,
        -1.0,
        2.220446049250313e-16,
        0.0,
        0.0,
        0.0,
        0.0,
        1.0
      ],
      "name": "GLTF_SceneRootNode"
    },
    {
      "children": [
        4
      ],
      "matrix": [
        1.0,
        0.0,
        0.0,
        0.0,
        0.0,
        1.0,
        0.0,
        0.0,
        0.0,
        0.0,
        1.0,
        0.0,
        0.0,
        0.3503371477127075,
        0.0,
        1.0
      ],
      "name": "Cube_0"
    },
    {
      "mesh": 0,
      "name": "Object_4"
    },
    {
      "children": [
        6
      ],
      "matrix": [
        1.0,
        0.0,
        0.0,
        0.0,
        0.0,
        1.0,
        0.0,
        0.0,
        0.0,
        0.0,
        1.0,
        0.0,
        0.0,
        0.4176267087459564,
        0.0,
        1.0
      ],
      "name": "Cube.002_1"
    },
    {
      "mesh": 1,
      "name": "Object_6"
    },
    {
      "children": [
        8
      ],
      "matrix": [
        8.429369480200677e-08,
        -0.9999999999999966,
        0.0,
        0.0,
        0.9999999999999966,
        8.429369480200677e-08,
        0.0,
        0.0,
        0.0,
        0.0,
        1.0,
        0.0,
        -0.871586799621582,
        0.9325719475746155,
        0.7919918298721313,
        1.0
      ],
      "name": "Cylinder_2"
    },
    {
      "mesh": 2,
      "name": "Object_8"
    },
    {
      "children": [
        10
      ],
      "matrix": [
        8.429369480200677e-08,
        -0.9999999999999966,
        0.0,
        0.0,
        0.9999999999999966,
        8.429369480200677e-08,
        0.0,
        0.0,
        0.0,
        0.0,
        1.0,
        0.0,
        -0.871586799621582,
        0.5425838828086853,
        0.8275176286697388,
        1.0
      ],
      "name": "Cylinder.002_3"
    },
    {
      "mesh": 3,
      "name": "Object_10"
    },
    {
      "children": [
        12
      ],
      "matrix": [
        8.423374098232017e-08,
        -0.997155970337408,
        -0.07536558113923951,
        0.0,
        0.9999999999999964,
        8.423374098232017e-08,
        3.17868255328424e-09,
        0.0,
        3.17868255328424e-09,
        -0.07536558113923951,
        0.9971559703374115,
        0.0,
        -0.871586799621582,
        0.3637363314628601,
        0.7919918298721313,
        1.0
      ],
      "name": "Cylinder.003_4"
    },
    {
      "mesh": 4,
      "name": "Object_12"
    },
    {
      "children": [
        14
      ],
      "matrix": [
        8.429370812468306e-08,
        0.9999999999999832,
        1.6292067071262105e-07,
        0.0,
        0.9999999999999832,
        -8.429368159035278e-08,
        -1.6292068444580694e-07,
        0.0,
        -1.6292067071262105e-07,
        1.6292068444580694e-07,
        -0.9999999999999734,
        0.0,
        -0.871586799621582,
        0.40071260929107666,
        -0.7940200567245483,
        1.0
      ],
      "name": "Cylinder.004_5"
    },
    {
      "mesh": 5,
      "name": "Object_14"
    },
    {
      "children": [
        16
      ],
      "matrix": [
        8.102175297342029e-08,
        0.9830129258526253,
        -0.18353633865437807,
        0.0,
        0.9999999999999961,
        -8.68481577764868e-08,
        -2.3707068683154198e-08,
        0.0,
        -3.9244147834183174e-08,
        -0.1835363386543754,
        -0.9830129258526283,
        0.0,
        -0.871586799621582,
        0.6082397103309631,
        -0.7940200567245483,
        1.0
      ],
      "name": "Cylinder.005_6"
    },
    {
      "mesh": 6,
      "name": "Object_16"
    },
    {
      "children": [
        18
      ],
      "matrix": [
        3.586730379367964e-08,
        0.9548950641726911,
        -0.29694345660180976,
        0.0,
        0.9999999999999466,
        -1.3080821403832488e-07,
        -2.9985780808372553e-07,
        0.0,
        -3.251753841193583e-07,
        -0.2969434566017831,
        -0.9548950641726446,
        0.0,
        -0.871586799621582,
        0.7907006144523621,
        -0.8052912354469299,
        1.0
      ],
      "name": "Cylinder.006_7"
    },
    {
      "mesh": 7,
      "name": "Object_18"
    },
    {
      "children": [
        20
      ],
      "matrix": [
        8.839696075124692e-08,
        0.9439083189884176,
        0.3302076397427107,
        0.0,
        0.999999999999996,
        -7.78095301523507e-08,
        -4.5280291488536406e-08,
        0.0,
        -1.704714255867934e-08,
        0.3302076397427134,
        -0.943908318988421,
        0.0,
        -0.871586799621582,
        0.969548225402832,
        -0.7940200567245483,
        1.0
      ],
      "name": "Cylinder.007_8"
    },
    {
      "mesh": 8,
      "name": "Object_20"
    },
    {
      "children": [
        22
      ],
      "matrix": [
        5.960463056453591e-08,
        0.9999999999999964,
        -5.960465898624534e-08,
        0.0,
        -4.768371599794818e-07,
        -5.960463056453591e-08,
        -0.9999999999998845,
        0.0,
        -0.9999999999998845,
        5.960465898624534e-08,
        4.7683715642676816e-07,
        0.0,
        0.8049250841140747,
        0.4741480350494385,
        0.831999659538269,
        1.0
      ],
      "name": "Cylinder.008_9"
    },
    {
      "mesh": 9,
      "name": "Object_22"
    },
    {
      "children": [
        24
      ],
      "matrix": [
        -0.13350332261946996,
        0.9910483655450735,
        1.7177015365632542e-10,
        0.0,
        -4.4403946303228636e-07,
        -5.964287486115438e-08,
        -0.9999999999998996,
        0.0,
        -0.9910483655449741,
        -0.13350332261945647,
        4.480271060813834e-07,
        0.0,
        0.8049250841140747,
        0.6808168292045593,
        0.831999659538269,
        1.0
      ],
      "name": "Cylinder.009_10"
    },
    {
      "mesh": 10,
      "name": "Object_24"
    },
    {
      "children": [
        26
      ],
      "matrix": [
        -0.999962896378982,
        -0.008614282637411156,
        -1.2647500061135908e-10,
        0.0,
        4.483293856820392e-09,
        -5.05747569823356e-07,
        -0.9999999999998721,
        0.0,
        0.00861428263740999,
        -0.999962896378854,
        5.05767425273973e-07,
        0.0,
        0.8049250841140747,
        0.8794403076171875,
        0.831999659538269,
        1.0
      ],
      "name": "Cylinder.010_11"
    },
    {
      "mesh": 11,
      "name": "Object_26"
    },
    {
      "children": [
        28
      ],
      "matrix": [
        -0.13350332261946996,
        0.9910483655450735,
        1.7177015365632542e-10,
        0.0,
        -4.4403946303228636e-07,
        -5.964287486115438e-08,
        -0.9999999999998996,
        0.0,
        -0.9910483655449741,
        -0.13350332261945647,
        4.480271060813834e-07,
        0.0,
        -0.827481746673584,
        0.6808168292045593,
        0.831999659538269,
        1.0
      ],
      "name": "Cylinder.012_12"
    },
    {
      "mesh": 12,
      "name": "Object_28"
    },
    {
      "children": [
        30
      ],
      "matrix": [
        -0.999962896378982,
        -0.008614282637411156,
        -1.2647500061135908e-10,
        0.0,
        4.483293856820392e-09,
        -5.05747569823356e-07,
        -0.9999999999998721,
        0.0,
        0.00861428263740999,
        -0.999962896378854,
        5.05767425273973e-07,
        0.0,
        -0.827481746673584,
        0.8794403076171875,
        0.831999659538269,
        1.0
      ],
      "name": "Cylinder.013_13"
    },
    {
      "mesh": 13,
      "name": "Object_30"
    },
    {
      "children": [
        32
      ],
      "matrix": [
        0.6489662967963977,
        0.7608171564984385,
        -1.4775824286328287e-08,
        0.0,
        -3.6792199487045707e-07,
        2.944112766911644e-07,
        -0.9999999999998889,
        0.0,
        -0.7608171564983497,
        0.6489662967963311,
        4.709843619554732e-07,
        0.0,
        -0.8084602952003479,
        0.3302052319049835,
        0.6341358423233032,
        1.0
      ],
      "name": "Cylinder.018_14"
    },
    {
      "mesh": 14,
      "name": "Object_32"
    },
    {
      "children": [
        34
      ],
      "matrix": [
        -0.7185302583943549,
        -1.299045973795528e-07,
        0.6954956993193596,
        0.0,
        1.299045973795528e-07,
        -0.9999999999999905,
        -5.2572882181140834e-08,
        0.0,
        0.6954956993193596,
        5.2572882181140834e-08,
        0.7185302583943645,
        0.0,
        -1.0540077686309814,
        0.16882023215293884,
        -0.040052756667137146,
        1.0
      ],
      "name": "Cylinder.019_15"
    },
    {
      "mesh": 15,
      "name": "Object_34"
    },
    {
      "children": [
        36
      ],
      "matrix": [
        8.429369480200677e-08,
        -0.9999999999999966,
        0.0,
        0.0,
        0.9999999999999966,
        8.429369480200677e-08,
        0.0,
        0.0,
        0.0,
        0.0,
        1.0,
        0.0,
        -0.7440230846405029,
        1.1506065130233765,
        0.00073966383934021,
        1.0
      ],
      "name": "Plane.002_16"
    },
    {
      "mesh": 16,
      "name": "Object_36"
    },
    {
      "children": [
        38
      ],
      "matrix": [
        8.429369480200677e-08,
        -0.9999999999999966,
        -0.0,
        0.0,
        0.9999999999999966,
        8.429369480200677e-08,
        0.0,
        0.0,
        0.0,
        0.0,
        1.0,
        0.0,
        -0.8336007595062256,
        0.5793896913528442,
        -0.007366929203271866,
        1.0
      ],
      "name": "Plane.004_17"
    },
    {
      "mesh": 17,
      "name": "Object_38"
    },
    {
      "children": [
        40
      ],
      "matrix": [
        8.429369480200677e-08,
        -0.9999999999999966,
        0.0,
        0.0,
        0.9999999999999966,
        8.429369480200677e-08,
        0.0,
        0.0,
        0.0,
        0.0,
        1.0,
        0.0,
        -0.7440230846405029,
        1.1609822511672974,
        0.00073966383934021,
        1.0
      ],
      "name": "Plane.005_18"
    },
    {
      "mesh": 18,
      "name": "Object_40"
    },
    {
      "children": [
        42
      ],
      "matrix": [
        8.429369480200677e-08,
        -0.9999999999999966,
        0.0,
        0.0,
        0.9999999999999966,
        8.429369480200677e-08,
        0.0,
        0.0,
        0.0,
        0.0,
        1.0,
        0.0,
        -0.871586799621582,
        0.7371848821640015,
        0.7919918298721313,
        1.0
      ],
      "name": "Cylinder.020_19"
    },
    {
      "mesh": 19,
      "name": "Object_42"
    },
    {
      "children": [
        44
      ],
      "matrix": [
        -0.5756762633574526,
        -0.8176777114528686,
        7.084501707499413e-09,
        0.0,
        3.8118096296058113e-07,
        -2.770300950860616e-07,
        -0.9999999999998889,
        0.0,
        0.8176777114527798,
        -0.5756762633573861,
        4.7116282753112415e-07,
        0.0,
        -0.827481746673584,
        0.4891829788684845,
        0.831999659538269,
        1.0
      ],
      "name": "Cylinder.001_20"
    },
    {
      "mesh": 20,
      "name": "Object_44"
    },
    {
      "children": [
        46
      ],
      "matrix": [
        -0.1967384712405196,
        -1.1003816473386062e-07,
        -1.24915002232501,
        0.0,
        1.1003816473386062e-07,
        -1.2645480632781898,
        9.406380794385158e-08,
        0.0,
        -1.24915002232501,
        -9.406380794385158e-08,
        0.19673847124052787,
        0.0,
        -0.7772722840309143,
        0.2050277292728424,
        -0.8307898640632629,
        1.0
      ],
      "name": "Cylinder.011_21"
    },
    {
      "mesh": 21,
      "name": "Object_46"
    },
    {
      "children": [
        48
      ],
      "matrix": [
        -1.0430577845517286,
        -1.702343274062318e-07,
        -0.6204556210047056,
        0.0,
        1.7737431459581352e-07,
        -1.2645480632781851,
        4.876711304078071e-08,
        0.0,
        -0.6204556210047056,
        -4.680405224938314e-08,
        1.0430577845517413,
        0.0,
        -0.7772722840309143,
        0.2050277292728424,
        0.777540385723114,
        1.0
      ],
      "name": "Cylinder.015_22"
    },
    {
      "mesh": 22,
      "name": "Object_48"
    },
    {
      "children": [
        50
      ],
      "matrix": [
        -0.6489662227861008,
        0.7607612119409343,
        0.00923147273741226,
        0.0,
        1.2482814181202784e-06,
        -0.012132562810643677,
        0.9999263977503983,
        0.0,
        0.760817219627147,
        0.6489184689356642,
        0.007872673815854103,
        0.0,
        0.5301918983459473,
        0.32319334149360657,
        -0.6503576636314392,
        1.0
      ],
      "name": "Cylinder.014_23"
    },
    {
      "mesh": 23,
      "name": "Object_50"
    },
    {
      "children": [
        52
      ],
      "matrix": [
        1.0086675033918298,
        -7.920998769852636e-11,
        -0.04918050878106931,
        0.0,
        9.918628834073227e-11,
        -1.2645480632781982,
        4.070938413001446e-09,
        0.0,
        -0.04918050878106931,
        -3.2510439397385995e-09,
        -1.00866750339183,
        0.0,
        0.4796275496482849,
        0.2050277292728424,
        -0.8307898640632629,
        1.0
      ],
      "name": "Cylinder.021_24"
    },
    {
      "mesh": 24,
      "name": "Object_52"
    },
    {
      "children": [
        54
      ],
      "matrix": [
        -1.0430577845517286,
        -1.702343274062318e-07,
        -0.6204556210047056,
        0.0,
        1.7737431459581352e-07,
        -1.2645480632781851,
        4.876711304078071e-08,
        0.0,
        -0.6204556210047056,
        -4.680405224938314e-08,
        1.0430577845517413,
        0.0,
        0.4796275496482849,
        0.2050277292728424,
        0.777540385723114,
        1.0
      ],
      "name": "Cylinder.022_25"
    },
    {
      "mesh": 25,
      "name": "Object_54"
    },
    {
      "children": [
        56
      ],
      "matrix": [
        8.429369480200677e-08,
        -0.9999999999999966,
        -0.0,
        0.0,
        -0.9999999999999966,
        -8.429369480200677e-08,
        0.0,
        -0.0,
        0.0,
        0.0,
        1.0,
        0.0,
        0.33468180894851685,
        1.1609822511672974,
        -0.014061030000448227,
        1.0
      ],
      "name": "Plane.003_26"
    },
    {
      "mesh": 26,
      "name": "Object_56"
    },
    {
      "children": [
        58
      ],
      "matrix": [
        8.429369480200677e-08,
        -0.9999999999999966,
        -0.0,
        0.0,
        -0.9999999999999966,
        -8.429369480200677e-08,
        0.0,
        -0.0,
        0.0,
        0.0,
        1.0,
        0.0,
        0.33468180894851685,
        1.1609822511672974,
        -0.014061030000448227,
        1.0
      ],
      "name": "Plane.006_27"
    },
    {
      "mesh": 27,
      "name": "Object_58"
    },
    {
      "children": [
        60
      ],
      "matrix": [
        -0.7941424513310711,
        0.27441958702430225,
        0.5422468600658641,
        0.0,
        -0.563894760956871,
        -4.3233596702663135e-08,
        -0.8258466555998103,
        0.0,
        -0.22662847473181907,
        -0.9616100510380545,
        0.15474380176058644,
        0.0,
        -0.9670700430870056,
        0.04256768152117729,
        0.8709822297096252,
        1.0
      ],
      "name": "Plane_28"
    },
    {
      "mesh": 28,
      "name": "Object_60"
    }
  ],
  "samplers": [
    {
      "magFilter": 9729,
      "minFilter": 9987,
      "wrapS": 10497,
      "wrapT": 10497
    }
  ],
  "scene": 0,
  "scenes": [
    {
      "name": "Sketchfab_Scene",
      "nodes": [
        0
      ]
    }
  ],
  "textures": [
    {
      "sampler": 0,
      "source": 0
    }
  ]
}
