{
  "accessors": [
    {
      "bufferView": 2,
      "componentType": 5126,
      "count": 7806,
      "max": [
        5.124726295471191,
        0.8914254307746887,
        4.3259663581848145
      ],
      "min": [
        -4.8043036460876465,
        -0.8914254307746887,
        -4.00261926651001
      ],
      "type": "VEC3"
    },
    {
      "bufferView": 2,
      "byteOffset": 93672,
      "componentType": 5126,
      "count": 7806,
      "max": [
        0.9999062418937683,
        1.0,
        0.9999238848686218
      ],
      "min": [
        -0.9999062418937683,
        -1.0,
        -0.9999502301216125
      ],
      "type": "VEC3"
    },
    {
      "bufferView": 3,
      "componentType": 5126,
      "count": 7806,
      "max": [
        0.999906599521637,
        1.0,
        0.9996774196624756,
        1.0
      ],
      "min": [
        -0.9999067783355713,
        -1.0,
        -0.9999611973762512,
        -1.0
      ],
      "type": "VEC4"
    },
    {
      "bufferView": 1,
      "componentType": 5126,
      "count": 7806,
      "max": [
        0.9839313626289368,
        0.9841926097869873
      ],
      "min": [
        0.015807390213012695,
        0.015807390213012695
      ],
      "type": "VEC2"
    },
    {
      "bufferView": 1,
      "byteOffset": 62448,
      "componentType": 5126,
      "count": 7806,
      "max": [
        0.9839313626289368,
        0.9841926097869873
      ],
      "min": [
        0.015807390213012695,
        0.015807390213012695
      ],
      "type": "VEC2"
    },
    {
      "bufferView": 1,
      "byteOffset": 124896,
      "componentType": 5126,
      "count": 7806,
      "max": [
        0.9839313626289368,
        0.9841926097869873
      ],
      "min": [
        0.015807390213012695,
        0.015807390213012695
      ],
      "type": "VEC2"
    },
    {
      "bufferView": 0,
      "componentType": 5125,
      "count": 12324,
      "type": "SCALAR"
    }
  ],
  "asset": {
    "extras": {
      "author": "AnshiNoWara (https://sketchfab.com/anshinowara)",
      "license": "CC-BY-4.0 (http://creativecommons.org/licenses/by/4.0/)",
      "source": "https://sketchfab.com/3d-models/mr-krabs-dime-8b1cec0fecb945e4bd27322c4fa35ab3",
      "title": "Mr Krabs' Dime"
    },
    "generator": "Sketchfab-15.55.0",
    "version": "2.0"
  },
  "bufferViews": [
    {
      "buffer": 0,
      "byteLength": 49296,
      "name": "floatBufferViews",
      "target": 34963
    },
    {
      "buffer": 0,
      "byteLength": 187344,
      "byteOffset": 49296,
      "byteStride": 8,
      "name": "floatBufferViews",
      "target": 34962
    },
    {
      "buffer": 0,
      "byteLength": 187344,
      "byteOffset": 236640,
      "byteStride": 12,
      "name": "floatBufferViews",
      "target": 34962
    },
    {
      "buffer": 0,
      "byteLength": 124896,
      "byteOffset": 423984,
      "byteStride": 16,
      "name": "floatBufferViews",
      "target": 34962
    }
  ],
  "buffers": [
    {
      "byteLength": 548880,
      "uri": "scene.bin"
    }
  ],
  "images": [
    {
      "uri": "textures/Dime_baseColor.png"
    },
    {
      "uri": "textures/Dime_metallicRoughness.png"
    },
    {
      "uri": "textures/Dime_normal.png"
    }
  ],
  "materials": [
    {
      "doubleSided": true,
      "name": "Dime",
      "normalTexture": {
        "index": 2
      },
      "pbrMetallicRoughness": {
        "baseColorTexture": {
          "index": 0
        },
        "metallicRoughnessTexture": {
          "index": 1
        }
      }
    }
  ],
  "meshes": [
    {
      "name": "Vert_Dime_0",
      "primitives": [
        {
          "attributes": {
            "NORMAL": 1,
            "POSITION": 0,
            "TANGENT": 2,
            "TEXCOORD_0": 3,
            "TEXCOORD_1": 4,
            "TEXCOORD_2": 5
          },
          "indices": 6,
          "material": 0,
          "mode": 4
        }
      ]
    }
  ],
  "nodes": [
    {
      "children": [
        1
      ],
      "matrix": [
        1.0,
        0.0,
        0.0,
        0.0,
        0.0,
        2.220446049250313e-16,
        -1.0,
        0.0,
        0.0,
        1.0,
        2.220446049250313e-16,
        0.0,
        0.0,
        0.0,
        0.0,
        1.0
      ],
      "name": "Sketchfab_model"
    },
    {
      "children": [
        2
      ],
      "matrix": [
        0.009999999776482582,
        0.0,
        0.0,
        0.0,
        0.0,
        0.0,
        0.009999999776482582,
        0.0,
        0.0,
        -0.009999999776482582,
        0.0,
        0.0,
        0.0,
        0.0,
        0.0,
        1.0
      ],
      "name": "Dime.fbx"
    },
    {
      "children": [
        3
      ],
      "name": "RootNode"
    },
    {
      "children": [
        4
      ],
      "matrix": [
        100.0,
        0.0,
        0.0,
        0.0,
        0.0,
        -1.629206793918314e-05,
        -99.99999999999868,
        0.0,
        0.0,
        99.99999999999868,
        -1.629206793918314e-05,
        0.0,
        0.0,
        0.0,
        0.0,
        1.0
      ],
      "name": "Vert"
    },
    {
      "mesh": 0,
      "name": "Vert_Dime_0"
    }
  ],
  "samplers": [
    {
      "magFilter": 9729,
      "minFilter": 9987,
      "wrapS": 10497,
      "wrapT": 10497
    }
  ],
  "scene": 0,
  "scenes": [
    {
      "name": "Sketchfab_Scene",
      "nodes": [
        0
      ]
    }
  ],
  "textures": [
    {
      "sampler": 0,
      "source": 0
    },
    {
      "sampler": 0,
      "source": 1
    },
    {
      "sampler": 0,
      "source": 2
    }
  ]
}
