{
  "accessors": [
    {
      "bufferView": 2,
      "componentType": 5126,
      "count": 37980,
      "max": [
        0.7614625692367554,
        0.7614625692367554,
        5.5708184242248535
      ],
      "min": [
        -0.7614625692367554,
        -0.7614625692367554,
        0.0
      ],
      "type": "VEC3"
    },
    {
      "bufferView": 2,
      "byteOffset": 455760,
      "componentType": 5126,
      "count": 37980,
      "max": [
        1.0,
        1.0,
        0.9999975562095642
      ],
      "min": [
        -1.0,
        -0.999998927116394,
        -0.9997270703315735
      ],
      "type": "VEC3"
    },
    {
      "bufferView": 3,
      "componentType": 5126,
      "count": 37980,
      "max": [
        1.0,
        1.0,
        0.9999675750732422,
        1.0
      ],
      "min": [
        -1.0,
        -1.0,
        -0.9999243021011353,
        -1.0
      ],
      "type": "VEC4"
    },
    {
      "bufferView": 1,
      "componentType": 5126,
      "count": 37980,
      "max": [
        0.9999895095825195,
        0.9967700242996216
      ],
      "min": [
        0.0,
        -2.5837320208665915e-05
      ],
      "type": "VEC2"
    },
    {
      "bufferView": 1,
      "byteOffset": 303840,
      "componentType": 5126,
      "count": 37980,
      "max": [
        0.9999895095825195,
        0.9967700242996216
      ],
      "min": [
        0.0,
        -2.5837320208665915e-05
      ],
      "type": "VEC2"
    },
    {
      "bufferView": 1,
      "byteOffset": 607680,
      "componentType": 5126,
      "count": 37980,
      "max": [
        0.9999895095825195,
        0.9967700242996216
      ],
      "min": [
        0.0,
        -2.5837320208665915e-05
      ],
      "type": "VEC2"
    },
    {
      "bufferView": 1,
      "byteOffset": 911520,
      "componentType": 5126,
      "count": 37980,
      "max": [
        0.9999895095825195,
        0.9967700242996216
      ],
      "min": [
        0.0,
        -2.5837320208665915e-05
      ],
      "type": "VEC2"
    },
    {
      "bufferView": 0,
      "componentType": 5125,
      "count": 80538,
      "type": "SCALAR"
    }
  ],
  "asset": {
    "extras": {
      "author": "creo14 (https://sketchfab.com/creo14)",
      "license": "CC-BY-4.0 (http://creativecommons.org/licenses/by/4.0/)",
      "source": "https://sketchfab.com/3d-models/futuristic-pillar-f992039675304e09a40a11a3ec023a62",
      "title": "Futuristic Pillar"
    },
    "generator": "Sketchfab-15.29.0",
    "version": "2.0"
  },
  "bufferViews": [
    {
      "buffer": 0,
      "byteLength": 322152,
      "name": "floatBufferViews",
      "target": 34963
    },
    {
      "buffer": 0,
      "byteLength": 1215360,
      "byteOffset": 322152,
      "byteStride": 8,
      "name": "floatBufferViews",
      "target": 34962
    },
    {
      "buffer": 0,
      "byteLength": 911520,
      "byteOffset": 1537512,
      "byteStride": 12,
      "name": "floatBufferViews",
      "target": 34962
    },
    {
      "buffer": 0,
      "byteLength": 607680,
      "byteOffset": 2449032,
      "byteStride": 16,
      "name": "floatBufferViews",
      "target": 34962
    }
  ],
  "buffers": [
    {
      "byteLength": 3056712,
      "uri": "scene.bin"
    }
  ],
  "extensionsUsed": [
    "KHR_materials_emissive_strength"
  ],
  "images": [
    {
      "uri": "textures/Futuristic_Column_baseColor.png"
    },
    {
      "uri": "textures/Futuristic_Column_metallicRoughness.png"
    },
    {
      "uri": "textures/Futuristic_Column_emissive.png"
    },
    {
      "uri": "textures/Futuristic_Column_normal.png"
    }
  ],
  "materials": [
    {
      "doubleSided": true,
      "emissiveFactor": [
        1.0,
        1.0,
        1.0
      ],
      "emissiveTexture": {
        "index": 2
      },
      "extensions": {
        "KHR_materials_emissive_strength": {
          "emissiveStrength": 10.0
        }
      },
      "name": "Futuristic_Column",
      "normalTexture": {
        "index": 3
      },
      "pbrMetallicRoughness": {
        "baseColorTexture": {
          "index": 0
        },
        "metallicRoughnessTexture": {
          "index": 1
        }
      }
    }
  ],
  "meshes": [
    {
      "name": "FuturisticPillar-bake_Futuristic Column_0",
      "primitives": [
        {
          "attributes": {
            "NORMAL": 1,
            "POSITION": 0,
            "TANGENT": 2,
            "TEXCOORD_0": 3,
            "TEXCOORD_1": 4,
            "TEXCOORD_2": 5,
            "TEXCOORD_3": 6
          },
          "indices": 7,
          "material": 0,
          "mode": 4
        }
      ]
    }
  ],
  "nodes": [
    {
      "children": [
        1
      ],
      "matrix": [
        1.0,
        0.0,
        0.0,
        0.0,
        0.0,
        2.220446049250313e-16,
        -1.0,
        0.0,
        0.0,
        1.0,
        2.220446049250313e-16,
        0.0,
        0.0,
        0.0,
        0.0,
        1.0
      ],
      "name": "Sketchfab_model"
    },
    {
      "children": [
        2
      ],
      "matrix": [
        0.009999999776482582,
        0.0,
        0.0,
        0.0,
        0.0,
        0.0,
        0.009999999776482582,
        0.0,
        0.0,
        -0.009999999776482582,
        0.0,
        0.0,
        0.0,
        0.0,
        0.0,
        1.0
      ],
      "name": "f6a6bb60c5704935a4cd7e27182f4739.fbx"
    },
    {
      "children": [
        3
      ],
      "name": "RootNode"
    },
    {
      "children": [
        4
      ],
      "matrix": [
        107.69566345214844,
        0.0,
        0.0,
        0.0,
        0.0,
        -1.754585065717805e-05,
        -107.69566345214702,
        0.0,
        0.0,
        107.69566345214702,
        -1.754585065717805e-05,
        0.0,
        0.0,
        0.0,
        0.0,
        1.0
      ],
      "name": "FuturisticPillar-bake"
    },
    {
      "mesh": 0,
      "name": "FuturisticPillar-bake_Futuristic Column_0"
    }
  ],
  "samplers": [
    {
      "magFilter": 9729,
      "minFilter": 9987,
      "wrapS": 10497,
      "wrapT": 10497
    }
  ],
  "scene": 0,
  "scenes": [
    {
      "name": "Sketchfab_Scene",
      "nodes": [
        0
      ]
    }
  ],
  "textures": [
    {
      "sampler": 0,
      "source": 0
    },
    {
      "sampler": 0,
      "source": 1
    },
    {
      "sampler": 0,
      "source": 2
    },
    {
      "sampler": 0,
      "source": 3
    }
  ]
}
