{
  "accessors": [
    {
      "bufferView": 2,
      "componentType": 5126,
      "count": 2465,
      "max": [
        7.628115653991699,
        1.1635513305664063,
        1.0962985754013062
      ],
      "min": [
        -2.1735830307006836,
        -0.9787757396697998,
        -1.0962985754013062
      ],
      "type": "VEC3"
    },
    {
      "bufferView": 2,
      "byteOffset": 29580,
      "componentType": 5126,
      "count": 2465,
      "max": [
        1.0,
        1.0,
        1.0
      ],
      "min": [
        -1.0,
        -1.0,
        -1.0
      ],
      "type": "VEC3"
    },
    {
      "bufferView": 1,
      "componentType": 5126,
      "count": 2465,
      "max": [
        0.9900000095367432,
        1.0000001192092896
      ],
      "min": [
        0.0,
        0.0
      ],
      "type": "VEC2"
    },
    {
      "bufferView": 0,
      "componentType": 5125,
      "count": 4530,
      "type": "SCALAR"
    },
    {
      "bufferView": 2,
      "byteOffset": 59160,
      "componentType": 5126,
      "count": 446,
      "max": [
        8.128393173217773,
        1.1440105438232422,
        1.1583099365234375
      ],
      "min": [
        -2.110611915588379,
        -1.1703768968582153,
        -1.1583099365234375
      ],
      "type": "VEC3"
    },
    {
      "bufferView": 2,
      "byteOffset": 64512,
      "componentType": 5126,
      "count": 446,
      "max": [
        0.9999994039535522,
        1.0,
        1.0
      ],
      "min": [
        -0.9963557124137878,
        -0.9999457001686096,
        -1.0
      ],
      "type": "VEC3"
    },
    {
      "bufferView": 1,
      "byteOffset": 19720,
      "componentType": 5126,
      "count": 446,
      "max": [
        0.875,
        1.0000001192092896
      ],
      "min": [
        0.125,
        0.5852000713348389
      ],
      "type": "VEC2"
    },
    {
      "bufferView": 0,
      "byteOffset": 18120,
      "componentType": 5125,
      "count": 804,
      "type": "SCALAR"
    },
    {
      "bufferView": 2,
      "byteOffset": 69864,
      "componentType": 5126,
      "count": 37,
      "max": [
        8.052478790283203,
        1.0302485227584839,
        0.14817826449871063
      ],
      "min": [
        0.7860803604125977,
        -0.869488537311554,
        -0.14817826449871063
      ],
      "type": "VEC3"
    },
    {
      "bufferView": 2,
      "byteOffset": 70308,
      "componentType": 5126,
      "count": 37,
      "max": [
        0.0018689867574721575,
        1.0,
        1.0
      ],
      "min": [
        0.0,
        -0.019837478175759315,
        -1.0
      ],
      "type": "VEC3"
    },
    {
      "bufferView": 1,
      "byteOffset": 23288,
      "componentType": 5126,
      "count": 37,
      "max": [
        0.385551780462265,
        0.8333333134651184
      ],
      "min": [
        0.3061707317829132,
        0.5852000713348389
      ],
      "type": "VEC2"
    },
    {
      "bufferView": 0,
      "byteOffset": 21336,
      "componentType": 5125,
      "count": 66,
      "type": "SCALAR"
    },
    {
      "bufferView": 2,
      "byteOffset": 70752,
      "componentType": 5126,
      "count": 634,
      "max": [
        0.3932243287563324,
        1.0903072357177734,
        1.3014366626739502
      ],
      "min": [
        -2.169740676879883,
        -0.9278513193130493,
        -1.3014366626739502
      ],
      "type": "VEC3"
    },
    {
      "bufferView": 2,
      "byteOffset": 78360,
      "componentType": 5126,
      "count": 634,
      "max": [
        0.8483468294143677,
        1.0,
        1.0
      ],
      "min": [
        -0.9999990463256836,
        -0.9999979734420776,
        -1.0
      ],
      "type": "VEC3"
    },
    {
      "bufferView": 1,
      "byteOffset": 23584,
      "componentType": 5126,
      "count": 634,
      "max": [
        0.8621594309806824,
        1.000000238418579
      ],
      "min": [
        0.1249999850988388,
        0.0
      ],
      "type": "VEC2"
    },
    {
      "bufferView": 0,
      "byteOffset": 21600,
      "componentType": 5125,
      "count": 1926,
      "type": "SCALAR"
    },
    {
      "bufferView": 2,
      "byteOffset": 85968,
      "componentType": 5126,
      "count": 314,
      "max": [
        0.9425184726715088,
        1.163590669631958,
        1.8140933513641357
      ],
      "min": [
        0.39137569069862366,
        -1.4240760803222656,
        -1.8140933513641357
      ],
      "type": "VEC3"
    },
    {
      "bufferView": 2,
      "byteOffset": 89736,
      "componentType": 5126,
      "count": 314,
      "max": [
        1.0,
        1.0,
        1.0
      ],
      "min": [
        -1.0,
        -0.9994775652885437,
        -1.0
      ],
      "type": "VEC3"
    },
    {
      "bufferView": 1,
      "byteOffset": 28656,
      "componentType": 5126,
      "count": 314,
      "max": [
        0.7083333134651184,
        0.833333432674408
      ],
      "min": [
        0.2916666269302368,
        0.09273510426282883
      ],
      "type": "VEC2"
    },
    {
      "bufferView": 0,
      "byteOffset": 29304,
      "componentType": 5125,
      "count": 672,
      "type": "SCALAR"
    },
    {
      "bufferView": 2,
      "byteOffset": 93504,
      "componentType": 5126,
      "count": 392,
      "max": [
        0.634181022644043,
        1.464268684387207,
        1.9732649326324463
      ],
      "min": [
        0.5212958455085754,
        -1.4240760803222656,
        -1.9732649326324463
      ],
      "type": "VEC3"
    },
    {
      "bufferView": 2,
      "byteOffset": 98208,
      "componentType": 5126,
      "count": 392,
      "max": [
        0.999997079372406,
        0.9023021459579468,
        0.965767502784729
      ],
      "min": [
        -0.999994695186615,
        -0.865583062171936,
        -0.9657673835754395
      ],
      "type": "VEC3"
    },
    {
      "bufferView": 1,
      "byteOffset": 31168,
      "componentType": 5126,
      "count": 392,
      "max": [
        0.7083333134651184,
        0.833333432674408
      ],
      "min": [
        0.2916666269302368,
        0.6201608180999756
      ],
      "type": "VEC2"
    },
    {
      "bufferView": 0,
      "byteOffset": 31992,
      "componentType": 5125,
      "count": 738,
      "type": "SCALAR"
    }
  ],
  "asset": {
    "extras": {
      "author": "LockyFarrell (https://sketchfab.com/lockyfarrell3d)",
      "license": "CC-BY-4.0 (http://creativecommons.org/licenses/by/4.0/)",
      "source": "https://sketchfab.com/3d-models/sci-fi-sword-f6735b2e339d48e68af3f365837ecceb",
      "title": "Sci-Fi Sword"
    },
    "generator": "Sketchfab-15.23.0",
    "version": "2.0"
  },
  "bufferViews": [
    {
      "buffer": 0,
      "byteLength": 34944,
      "name": "floatBufferViews",
      "target": 34963
    },
    {
      "buffer": 0,
      "byteLength": 34304,
      "byteOffset": 34944,
      "byteStride": 8,
      "name": "floatBufferViews",
      "target": 34962
    },
    {
      "buffer": 0,
      "byteLength": 102912,
      "byteOffset": 69248,
      "byteStride": 12,
      "name": "floatBufferViews",
      "target": 34962
    }
  ],
  "buffers": [
    {
      "byteLength": 172160,
      "uri": "scene.bin"
    }
  ],
  "materials": [
    {
      "doubleSided": true,
      "name": "Material.001",
      "pbrMetallicRoughness": {
        "baseColorFactor": [
          0.0908361,
          0.0908361,
          0.0908361,
          1.0
        ],
        "metallicFactor": 0.521739,
        "roughnessFactor": 0.0942029
      }
    },
    {
      "doubleSided": true,
      "emissiveFactor": [
        0.124692,
        0.757399,
        1.0
      ],
      "name": "Material.002"
    },
    {
      "doubleSided": true,
      "name": "Material.003",
      "pbrMetallicRoughness": {
        "roughnessFactor": 0.0
      }
    },
    {
      "doubleSided": true,
      "name": "Material.004",
      "pbrMetallicRoughness": {
        "baseColorFactor": [
          0.00206311,
          0.00206311,
          0.00206311,
          1.0
        ],
        "metallicFactor": 0.0
      }
    },
    {
      "doubleSided": true,
      "name": "Material.006",
      "pbrMetallicRoughness": {
        "roughnessFactor": 0.130435
      }
    },
    {
      "doubleSided": true,
      "name": "Material.007",
      "pbrMetallicRoughness": {
        "baseColorFactor": [
          0.207913,
          0.207913,
          0.207913,
          1.0
        ],
        "roughnessFactor": 0.289855
      }
    }
  ],
  "meshes": [
    {
      "name": "Object_0",
      "primitives": [
        {
          "attributes": {
            "NORMAL": 1,
            "POSITION": 0,
            "TEXCOORD_0": 2
          },
          "indices": 3,
          "material": 0,
          "mode": 4
        }
      ]
    },
    {
      "name": "Object_1",
      "primitives": [
        {
          "attributes": {
            "NORMAL": 5,
            "POSITION": 4,
            "TEXCOORD_0": 6
          },
          "indices": 7,
          "material": 1,
          "mode": 4
        }
      ]
    },
    {
      "name": "Object_2",
      "primitives": [
        {
          "attributes": {
            "NORMAL": 9,
            "POSITION": 8,
            "TEXCOORD_0": 10
          },
          "indices": 11,
          "material": 2,
          "mode": 4
        }
      ]
    },
    {
      "name": "Object_3",
      "primitives": [
        {
          "attributes": {
            "NORMAL": 13,
            "POSITION": 12,
            "TEXCOORD_0": 14
          },
          "indices": 15,
          "material": 3,
          "mode": 4
        }
      ]
    },
    {
      "name": "Object_4",
      "primitives": [
        {
          "attributes": {
            "NORMAL": 17,
            "POSITION": 16,
            "TEXCOORD_0": 18
          },
          "indices": 19,
          "material": 4,
          "mode": 4
        }
      ]
    },
    {
      "name": "Object_5",
      "primitives": [
        {
          "attributes": {
            "NORMAL": 21,
            "POSITION": 20,
            "TEXCOORD_0": 22
          },
          "indices": 23,
          "material": 5,
          "mode": 4
        }
      ]
    }
  ],
  "nodes": [
    {
      "children": [
        1
      ],
      "matrix": [
        1.0,
        0.0,
        0.0,
        0.0,
        0.0,
        2.220446049250313e-16,
        -1.0,
        0.0,
        0.0,
        1.0,
        2.220446049250313e-16,
        0.0,
        0.0,
        0.0,
        0.0,
        1.0
      ],
      "name": "Sketchfab_model"
    },
    {
      "children": [
        2
      ],
      "name": "root"
    },
    {
      "children": [
        3
      ],
      "matrix": [
        1.0,
        0.0,
        0.0,
        0.0,
        0.0,
        2.220446049250313e-16,
        1.0,
        0.0,
        0.0,
        -1.0,
        2.220446049250313e-16,
        0.0,
        0.0,
        0.0,
        0.0,
        1.0
      ],
      "name": "GLTF_SceneRootNode"
    },
    {
      "children": [
        4,
        5,
        6,
        7,
        8,
        9
      ],
      "matrix": [
        5.286588668823242,
        0.0,
        0.0,
        0.0,
        0.0,
        1.1439929008483887,
        0.0,
        0.0,
        -0.0,
        -0.0,
        -0.45854148268699646,
        -0.0,
        0.0,
        0.0,
        0.0,
        1.0
      ],
      "name": "Sword_0"
    },
    {
      "mesh": 0,
      "name": "Object_4"
    },
    {
      "mesh": 1,
      "name": "Object_5"
    },
    {
      "mesh": 2,
      "name": "Object_6"
    },
    {
      "mesh": 3,
      "name": "Object_7"
    },
    {
      "mesh": 4,
      "name": "Object_8"
    },
    {
      "mesh": 5,
      "name": "Object_9"
    }
  ],
  "scene": 0,
  "scenes": [
    {
      "name": "Sketchfab_Scene",
      "nodes": [
        0
      ]
    }
  ]
}
