{
  "accessors": [
    {
      "bufferView": 2,
      "componentType": 5126,
      "count": 617,
      "max": [
        29.76358985900879,
        34.36803436279297,
        4.29328727722168
      ],
      "min": [
        -29.76358985900879,
        -34.36803436279297,
        0.0
      ],
      "type": "VEC3"
    },
    {
      "bufferView": 2,
      "byteOffset": 7404,
      "componentType": 5126,
      "count": 617,
      "max": [
        1.0,
        0.8660255074501038,
        1.0
      ],
      "min": [
        -1.0,
        -0.8660255074501038,
        -1.0
      ],
      "type": "VEC3"
    },
    {
      "bufferView": 1,
      "componentType": 5126,
      "count": 617,
      "max": [
        0.9900000095367432,
        0.9331039786338806
      ],
      "min": [
        0.009999999776482582,
        0.009999999776482582
      ],
      "type": "VEC2"
    },
    {
      "bufferView": 0,
      "componentType": 5125,
      "count": 1992,
      "type": "SCALAR"
    },
    {
      "bufferView": 2,
      "byteOffset": 14808,
      "componentType": 5126,
      "count": 130,
      "max": [
        28.708309173583984,
        32.00796890258789,
        4.009410381317139
      ],
      "min": [
        -28.708309173583984,
        -33.14950180053711,
        3.1577773094177246
      ],
      "type": "VEC3"
    },
    {
      "bufferView": 2,
      "byteOffset": 16368,
      "componentType": 5126,
      "count": 130,
      "max": [
        0.6920153498649597,
        0.5993032455444336,
        0.9984861612319946
      ],
      "min": [
        -0.6920153498649597,
        -0.5993028879165649,
        0.7218824028968811
      ],
      "type": "VEC3"
    },
    {
      "bufferView": 1,
      "byteOffset": 4936,
      "componentType": 5126,
      "count": 130,
      "max": [
        0.4539748430252075,
        0.5138310790061951
      ],
      "min": [
        0.009999999776482582,
        0.009999999776482582
      ],
      "type": "VEC2"
    },
    {
      "bufferView": 0,
      "byteOffset": 7968,
      "componentType": 5125,
      "count": 384,
      "type": "SCALAR"
    }
  ],
  "asset": {
    "extras": {
      "author": "tomciomalina (https://sketchfab.com/tomciomalina)",
      "license": "CC-BY-SA-4.0 (http://creativecommons.org/licenses/by-sa/4.0/)",
      "source": "https://sketchfab.com/3d-models/sci-fi-coin-e6c50859b7e841bc99b229f27f2e3fb9",
      "title": "Sci-fi Coin"
    },
    "generator": "Sketchfab-12.68.0",
    "version": "2.0"
  },
  "bufferViews": [
    {
      "buffer": 0,
      "byteLength": 9504,
      "name": "floatBufferViews",
      "target": 34963
    },
    {
      "buffer": 0,
      "byteLength": 5976,
      "byteOffset": 9504,
      "byteStride": 8,
      "name": "floatBufferViews",
      "target": 34962
    },
    {
      "buffer": 0,
      "byteLength": 17928,
      "byteOffset": 15480,
      "byteStride": 12,
      "name": "floatBufferViews",
      "target": 34962
    }
  ],
  "buffers": [
    {
      "byteLength": 33408,
      "uri": "scene.bin"
    }
  ],
  "materials": [
    {
      "doubleSided": true,
      "name": "Material_161_Tube004",
      "pbrMetallicRoughness": {
        "baseColorFactor": [
          0.0,
          0.0,
          0.0,
          1.0
        ],
        "metallicFactor": 0.0,
        "roughnessFactor": 0.0870807927
      }
    },
    {
      "doubleSided": true,
      "name": "14_-_Default",
      "pbrMetallicRoughness": {
        "baseColorFactor": [
          1.0,
          0.9602083827,
          0.0,
          1.0
        ],
        "metallicFactor": 0.3614710366
      }
    }
  ],
  "meshes": [
    {
      "name": "Tube004_Material #161 [Tube004]_0",
      "primitives": [
        {
          "attributes": {
            "NORMAL": 1,
            "POSITION": 0,
            "TEXCOORD_0": 2
          },
          "indices": 3,
          "material": 0,
          "mode": 4
        }
      ]
    },
    {
      "name": "Tube004_14 - Default_0",
      "primitives": [
        {
          "attributes": {
            "NORMAL": 5,
            "POSITION": 4,
            "TEXCOORD_0": 6
          },
          "indices": 7,
          "material": 1,
          "mode": 4
        }
      ]
    }
  ],
  "nodes": [
    {
      "children": [
        1
      ],
      "matrix": [
        1.0,
        0.0,
        0.0,
        0.0,
        0.0,
        2.220446049250313e-16,
        -1.0,
        0.0,
        0.0,
        1.0,
        2.220446049250313e-16,
        0.0,
        0.0,
        0.0,
        0.0,
        1.0
      ],
      "name": "Sketchfab_model"
    },
    {
      "children": [
        2
      ],
      "matrix": [
        1.0,
        0.0,
        0.0,
        0.0,
        0.0,
        0.0,
        1.0,
        0.0,
        0.0,
        -1.0,
        0.0,
        0.0,
        0.0,
        0.0,
        0.0,
        1.0
      ],
      "name": "463a1c194f0c445aa12eafcb5ce30cb3.fbx"
    },
    {
      "children": [
        3
      ],
      "name": "RootNode"
    },
    {
      "children": [
        4,
        5
      ],
      "matrix": [
        1.0,
        0.0,
        0.0,
        0.0,
        0.0,
        5.960464466436832e-08,
        -0.9999999999999983,
        0.0,
        0.0,
        0.9999999999999983,
        5.960464466436832e-08,
        0.0,
        1.686263084411621,
        29.250064849853516,
        -0.0099945068359375,
        1.0
      ],
      "name": "Tube004"
    },
    {
      "mesh": 0,
      "name": "Tube004_Material #161 [Tube004]_0"
    },
    {
      "mesh": 1,
      "name": "Tube004_14 - Default_0"
    }
  ],
  "scene": 0,
  "scenes": [
    {
      "name": "Sketchfab_Scene",
      "nodes": [
        0
      ]
    }
  ]
}
