{
  "accessors": [
    {
      "bufferView": 2,
      "componentType": 5126,
      "count": 45,
      "max": [
        0.9999997615814209,
        3.820981740951538,
        5.377934455871582
      ],
      "min": [
        -0.9999998211860657,
        2.880042314529419,
        -5.377934455871582
      ],
      "type": "VEC3"
    },
    {
      "bufferView": 2,
      "byteOffset": 540,
      "componentType": 5126,
      "count": 45,
      "max": [
        0.8755788803100586,
        0.8755784034729004,
        0.8755788803100586
      ],
      "min": [
        -0.8755788803100586,
        -0.8755784630775452,
        -0.8755788803100586
      ],
      "type": "VEC3"
    },
    {
      "bufferView": 1,
      "componentType": 5126,
      "count": 45,
      "max": [
        0.8465859889984131,
        0.9715859889984131
      ],
      "min": [
        0.125,
        0.0
      ],
      "type": "VEC2"
    },
    {
      "bufferView": 0,
      "componentType": 5125,
      "count": 132,
      "type": "SCALAR"
    },
    {
      "bufferView": 2,
      "byteOffset": 1080,
      "componentType": 5126,
      "count": 45,
      "max": [
        0.9999995827674866,
        2.8848090171813965,
        5.377933979034424
      ],
      "min": [
        -0.9999998807907104,
        1.9438695907592773,
        -5.377933979034424
      ],
      "type": "VEC3"
    },
    {
      "bufferView": 2,
      "byteOffset": 1620,
      "componentType": 5126,
      "count": 45,
      "max": [
        0.8755786418914795,
        0.8755786418914795,
        0.8755788803100586
      ],
      "min": [
        -0.8755786418914795,
        -0.8755786418914795,
        -0.8755788803100586
      ],
      "type": "VEC3"
    },
    {
      "bufferView": 1,
      "byteOffset": 360,
      "componentType": 5126,
      "count": 45,
      "max": [
        0.8465859889984131,
        0.9715859889984131
      ],
      "min": [
        0.125,
        0.0
      ],
      "type": "VEC2"
    },
    {
      "bufferView": 0,
      "byteOffset": 528,
      "componentType": 5125,
      "count": 132,
      "type": "SCALAR"
    },
    {
      "bufferView": 2,
      "byteOffset": 2160,
      "componentType": 5126,
      "count": 45,
      "max": [
        0.9999995827674866,
        1.0617363452911377,
        5.377933979034424
      ],
      "min": [
        -0.9999998807907104,
        0.12079691886901855,
        -5.377933979034424
      ],
      "type": "VEC3"
    },
    {
      "bufferView": 2,
      "byteOffset": 2700,
      "componentType": 5126,
      "count": 45,
      "max": [
        0.875578761100769,
        0.8755786418914795,
        0.8755788803100586
      ],
      "min": [
        -0.875578761100769,
        -0.8755786418914795,
        -0.8755788207054138
      ],
      "type": "VEC3"
    },
    {
      "bufferView": 1,
      "byteOffset": 720,
      "componentType": 5126,
      "count": 45,
      "max": [
        0.8465859889984131,
        0.9715859889984131
      ],
      "min": [
        0.125,
        0.0
      ],
      "type": "VEC2"
    },
    {
      "bufferView": 0,
      "byteOffset": 1056,
      "componentType": 5125,
      "count": 132,
      "type": "SCALAR"
    },
    {
      "bufferView": 2,
      "byteOffset": 3240,
      "componentType": 5126,
      "count": 45,
      "max": [
        0.9999995827674866,
        1.9979087114334106,
        5.377933979034424
      ],
      "min": [
        -0.9999998807907104,
        1.0569692850112915,
        -5.377933979034424
      ],
      "type": "VEC3"
    },
    {
      "bufferView": 2,
      "byteOffset": 3780,
      "componentType": 5126,
      "count": 45,
      "max": [
        0.8755786418914795,
        0.8755786418914795,
        0.8755788803100586
      ],
      "min": [
        -0.8755786418914795,
        -0.8755786418914795,
        -0.8755788207054138
      ],
      "type": "VEC3"
    },
    {
      "bufferView": 1,
      "byteOffset": 1080,
      "componentType": 5126,
      "count": 45,
      "max": [
        0.8465859889984131,
        0.9715859889984131
      ],
      "min": [
        0.125,
        0.0
      ],
      "type": "VEC2"
    },
    {
      "bufferView": 0,
      "byteOffset": 1584,
      "componentType": 5125,
      "count": 132,
      "type": "SCALAR"
    },
    {
      "bufferView": 2,
      "byteOffset": 4320,
      "componentType": 5126,
      "count": 90,
      "max": [
        0.9999995827674866,
        -0.7531242370605469,
        5.377933979034424
      ],
      "min": [
        -0.9999998807907104,
        -2.6302361488342285,
        -5.377933979034424
      ],
      "type": "VEC3"
    },
    {
      "bufferView": 2,
      "byteOffset": 5400,
      "componentType": 5126,
      "count": 90,
      "max": [
        0.875578761100769,
        0.8755786418914795,
        0.8755788803100586
      ],
      "min": [
        -0.8755788207054138,
        -0.8755786418914795,
        -0.8755788803100586
      ],
      "type": "VEC3"
    },
    {
      "bufferView": 1,
      "byteOffset": 1440,
      "componentType": 5126,
      "count": 90,
      "max": [
        0.8465859889984131,
        0.9715859889984131
      ],
      "min": [
        0.125,
        0.0
      ],
      "type": "VEC2"
    },
    {
      "bufferView": 0,
      "byteOffset": 2112,
      "componentType": 5125,
      "count": 264,
      "type": "SCALAR"
    },
    {
      "bufferView": 2,
      "byteOffset": 6480,
      "componentType": 5126,
      "count": 45,
      "max": [
        0.9999995827674866,
        0.13377594947814941,
        5.377933979034424
      ],
      "min": [
        -0.9999998807907104,
        -0.8071634769439697,
        -5.377933979034424
      ],
      "type": "VEC3"
    },
    {
      "bufferView": 2,
      "byteOffset": 7020,
      "componentType": 5126,
      "count": 45,
      "max": [
        0.8755786418914795,
        0.8755786418914795,
        0.8755788803100586
      ],
      "min": [
        -0.875578761100769,
        -0.8755786418914795,
        -0.8755788207054138
      ],
      "type": "VEC3"
    },
    {
      "bufferView": 1,
      "byteOffset": 2160,
      "componentType": 5126,
      "count": 45,
      "max": [
        0.8465859889984131,
        0.9715859889984131
      ],
      "min": [
        0.125,
        0.0
      ],
      "type": "VEC2"
    },
    {
      "bufferView": 0,
      "byteOffset": 3168,
      "componentType": 5125,
      "count": 132,
      "type": "SCALAR"
    }
  ],
  "asset": {
    "extras": {
      "author": "SuperScriptDEV (https://sketchfab.com/supersciptdev)",
      "license": "CC-BY-4.0 (http://creativecommons.org/licenses/by/4.0/)",
      "source": "https://sketchfab.com/3d-models/black-to-white-4b415203ff0344b7841fd4e7174f0b20",
      "title": "Black to White"
    },
    "generator": "Sketchfab-16.72.0",
    "version": "2.0"
  },
  "bufferViews": [
    {
      "buffer": 0,
      "byteLength": 3696,
      "name": "floatBufferViews",
      "target": 34963
    },
    {
      "buffer": 0,
      "byteLength": 2520,
      "byteOffset": 3696,
      "byteStride": 8,
      "name": "floatBufferViews",
      "target": 34962
    },
    {
      "buffer": 0,
      "byteLength": 7560,
      "byteOffset": 6216,
      "byteStride": 12,
      "name": "floatBufferViews",
      "target": 34962
    }
  ],
  "buffers": [
    {
      "byteLength": 13776,
      "uri": "scene.bin"
    }
  ],
  "materials": [
    {
      "doubleSided": true,
      "name": "Malzeme",
      "pbrMetallicRoughness": {
        "baseColorFactor": [
          0.00719348,
          0.00719348,
          0.00719348,
          1.0
        ],
        "metallicFactor": 0.0,
        "roughnessFactor": 0.5
      }
    },
    {
      "doubleSided": true,
      "name": "Malzeme.001",
      "pbrMetallicRoughness": {
        "baseColorFactor": [
          0.0303734,
          0.0330097,
          0.0396794,
          1.0
        ],
        "metallicFactor": 0.0,
        "roughnessFactor": 0.5
      }
    },
    {
      "doubleSided": true,
      "name": "Malzeme.003",
      "pbrMetallicRoughness": {
        "baseColorFactor": [
          0.162641,
          0.129608,
          0.141863,
          1.0
        ],
        "metallicFactor": 0.0,
        "roughnessFactor": 0.5
      }
    },
    {
      "doubleSided": true,
      "name": "Malzeme.002",
      "pbrMetallicRoughness": {
        "baseColorFactor": [
          0.0742136,
          0.0722719,
          0.066626,
          1.0
        ],
        "metallicFactor": 0.0,
        "roughnessFactor": 0.3946678694639831
      }
    },
    {
      "doubleSided": true,
      "name": "Malzeme.005",
      "pbrMetallicRoughness": {
        "baseColorFactor": [
          0.447978,
          0.419412,
          0.407093,
          1.0
        ],
        "metallicFactor": 0.0,
        "roughnessFactor": 0.5
      }
    },
    {
      "doubleSided": true,
      "name": "Malzeme.004",
      "pbrMetallicRoughness": {
        "baseColorFactor": [
          0.283149,
          0.247597,
          0.262995,
          1.0
        ],
        "metallicFactor": 0.0,
        "roughnessFactor": 0.5
      }
    }
  ],
  "meshes": [
    {
      "name": "Object_0",
      "primitives": [
        {
          "attributes": {
            "NORMAL": 1,
            "POSITION": 0,
            "TEXCOORD_0": 2
          },
          "indices": 3,
          "material": 0,
          "mode": 4
        }
      ]
    },
    {
      "name": "Object_1",
      "primitives": [
        {
          "attributes": {
            "NORMAL": 5,
            "POSITION": 4,
            "TEXCOORD_0": 6
          },
          "indices": 7,
          "material": 1,
          "mode": 4
        }
      ]
    },
    {
      "name": "Object_2",
      "primitives": [
        {
          "attributes": {
            "NORMAL": 9,
            "POSITION": 8,
            "TEXCOORD_0": 10
          },
          "indices": 11,
          "material": 2,
          "mode": 4
        }
      ]
    },
    {
      "name": "Object_3",
      "primitives": [
        {
          "attributes": {
            "NORMAL": 13,
            "POSITION": 12,
            "TEXCOORD_0": 14
          },
          "indices": 15,
          "material": 3,
          "mode": 4
        }
      ]
    },
    {
      "name": "Object_4",
      "primitives": [
        {
          "attributes": {
            "NORMAL": 17,
            "POSITION": 16,
            "TEXCOORD_0": 18
          },
          "indices": 19,
          "material": 4,
          "mode": 4
        }
      ]
    },
    {
      "name": "Object_5",
      "primitives": [
        {
          "attributes": {
            "NORMAL": 21,
            "POSITION": 20,
            "TEXCOORD_0": 22
          },
          "indices": 23,
          "material": 5,
          "mode": 4
        }
      ]
    }
  ],
  "nodes": [
    {
      "children": [
        1
      ],
      "matrix": [
        1.0,
        0.0,
        0.0,
        0.0,
        0.0,
        2.220446049250313e-16,
        -1.0,
        0.0,
        0.0,
        1.0,
        2.220446049250313e-16,
        0.0,
        0.0,
        0.0,
        0.0,
        1.0
      ],
      "name": "Sketchfab_model"
    },
    {
      "children": [
        2
      ],
      "name": "root"
    },
    {
      "children": [
        3
      ],
      "matrix": [
        1.0,
        0.0,
        0.0,
        0.0,
        0.0,
        2.220446049250313e-16,
        1.0,
        0.0,
        0.0,
        -1.0,
        2.220446049250313e-16,
        0.0,
        0.0,
        0.0,
        0.0,
        1.0
      ],
      "name": "GLTF_SceneRootNode"
    },
    {
      "children": [
        4,
        5,
        6,
        7,
        8,
        9
      ],
      "matrix": [
        0.6472421884536743,
        0.0,
        0.0,
        0.0,
        0.0,
        0.6472421884536743,
        0.0,
        0.0,
        0.0,
        0.0,
        0.6472421884536743,
        0.0,
        0.9651970863342285,
        0.0,
        0.0,
        1.0
      ],
      "name": "Cube.001_0"
    },
    {
      "mesh": 0,
      "name": "Object_4"
    },
    {
      "mesh": 1,
      "name": "Object_5"
    },
    {
      "mesh": 2,
      "name": "Object_6"
    },
    {
      "mesh": 3,
      "name": "Object_7"
    },
    {
      "mesh": 4,
      "name": "Object_8"
    },
    {
      "mesh": 5,
      "name": "Object_9"
    }
  ],
  "scene": 0,
  "scenes": [
    {
      "name": "Sketchfab_Scene",
      "nodes": [
        0
      ]
    }
  ]
}
